<?xml version="1.0" encoding="utf-8"?>
<svg xmlns="http://www.w3.org/2000/svg" xmlns:xlink="http://www.w3.org/1999/xlink" width="600" height="400" viewBox="0 0 2400 1600">
<defs>
  <clipPath id="clip700">
    <rect x="0" y="0" width="2400" height="1600"/>
  </clipPath>
</defs>
<path clip-path="url(#clip700)" d="M0 1600 L2400 1600 L2400 8.88178e-14 L0 8.88178e-14  Z" fill="#ffffff" fill-rule="evenodd" fill-opacity="1"/>
<defs>
  <clipPath id="clip701">
    <rect x="480" y="0" width="1681" height="1600"/>
  </clipPath>
</defs>
<path clip-path="url(#clip700)" d="M252.764 1423.18 L2352.76 1423.18 L2352.76 47.2441 L252.764 47.2441  Z" fill="#ffffff" fill-rule="evenodd" fill-opacity="1"/>
<defs>
  <clipPath id="clip702">
    <rect x="252" y="47" width="2101" height="1377"/>
  </clipPath>
</defs>
<polyline clip-path="url(#clip702)" style="stroke:#000000; stroke-linecap:round; stroke-linejoin:round; stroke-width:2; stroke-opacity:0.1; fill:none" points="308.227,1423.18 308.227,47.2441 "/>
<polyline clip-path="url(#clip702)" style="stroke:#000000; stroke-linecap:round; stroke-linejoin:round; stroke-width:2; stroke-opacity:0.1; fill:none" points="705.246,1423.18 705.246,47.2441 "/>
<polyline clip-path="url(#clip702)" style="stroke:#000000; stroke-linecap:round; stroke-linejoin:round; stroke-width:2; stroke-opacity:0.1; fill:none" points="1102.27,1423.18 1102.27,47.2441 "/>
<polyline clip-path="url(#clip702)" style="stroke:#000000; stroke-linecap:round; stroke-linejoin:round; stroke-width:2; stroke-opacity:0.1; fill:none" points="1499.28,1423.18 1499.28,47.2441 "/>
<polyline clip-path="url(#clip702)" style="stroke:#000000; stroke-linecap:round; stroke-linejoin:round; stroke-width:2; stroke-opacity:0.1; fill:none" points="1896.3,1423.18 1896.3,47.2441 "/>
<polyline clip-path="url(#clip702)" style="stroke:#000000; stroke-linecap:round; stroke-linejoin:round; stroke-width:2; stroke-opacity:0.1; fill:none" points="2293.32,1423.18 2293.32,47.2441 "/>
<polyline clip-path="url(#clip702)" style="stroke:#000000; stroke-linecap:round; stroke-linejoin:round; stroke-width:2; stroke-opacity:0.1; fill:none" points="252.764,958.604 2352.76,958.604 "/>
<polyline clip-path="url(#clip702)" style="stroke:#000000; stroke-linecap:round; stroke-linejoin:round; stroke-width:2; stroke-opacity:0.1; fill:none" points="252.764,346.423 2352.76,346.423 "/>
<polyline clip-path="url(#clip700)" style="stroke:#000000; stroke-linecap:round; stroke-linejoin:round; stroke-width:4; stroke-opacity:1; fill:none" points="252.764,1423.18 2352.76,1423.18 "/>
<polyline clip-path="url(#clip700)" style="stroke:#000000; stroke-linecap:round; stroke-linejoin:round; stroke-width:4; stroke-opacity:1; fill:none" points="308.227,1423.18 308.227,1404.28 "/>
<polyline clip-path="url(#clip700)" style="stroke:#000000; stroke-linecap:round; stroke-linejoin:round; stroke-width:4; stroke-opacity:1; fill:none" points="705.246,1423.18 705.246,1404.28 "/>
<polyline clip-path="url(#clip700)" style="stroke:#000000; stroke-linecap:round; stroke-linejoin:round; stroke-width:4; stroke-opacity:1; fill:none" points="1102.27,1423.18 1102.27,1404.28 "/>
<polyline clip-path="url(#clip700)" style="stroke:#000000; stroke-linecap:round; stroke-linejoin:round; stroke-width:4; stroke-opacity:1; fill:none" points="1499.28,1423.18 1499.28,1404.28 "/>
<polyline clip-path="url(#clip700)" style="stroke:#000000; stroke-linecap:round; stroke-linejoin:round; stroke-width:4; stroke-opacity:1; fill:none" points="1896.3,1423.18 1896.3,1404.28 "/>
<polyline clip-path="url(#clip700)" style="stroke:#000000; stroke-linecap:round; stroke-linejoin:round; stroke-width:4; stroke-opacity:1; fill:none" points="2293.32,1423.18 2293.32,1404.28 "/>
<path clip-path="url(#clip700)" d="M308.227 1454.1 Q304.616 1454.1 302.788 1457.66 Q300.982 1461.2 300.982 1468.33 Q300.982 1475.44 302.788 1479.01 Q304.616 1482.55 308.227 1482.55 Q311.862 1482.55 313.667 1479.01 Q315.496 1475.44 315.496 1468.33 Q315.496 1461.2 313.667 1457.66 Q311.862 1454.1 308.227 1454.1 M308.227 1450.39 Q314.038 1450.39 317.093 1455 Q320.172 1459.58 320.172 1468.33 Q320.172 1477.06 317.093 1481.67 Q314.038 1486.25 308.227 1486.25 Q302.417 1486.25 299.339 1481.67 Q296.283 1477.06 296.283 1468.33 Q296.283 1459.58 299.339 1455 Q302.417 1450.39 308.227 1450.39 Z" fill="#000000" fill-rule="nonzero" fill-opacity="1" /><path clip-path="url(#clip700)" d="M664.853 1481.64 L672.492 1481.64 L672.492 1455.28 L664.182 1456.95 L664.182 1452.69 L672.446 1451.02 L677.122 1451.02 L677.122 1481.64 L684.76 1481.64 L684.76 1485.58 L664.853 1485.58 L664.853 1481.64 Z" fill="#000000" fill-rule="nonzero" fill-opacity="1" /><path clip-path="url(#clip700)" d="M704.205 1454.1 Q700.594 1454.1 698.765 1457.66 Q696.959 1461.2 696.959 1468.33 Q696.959 1475.44 698.765 1479.01 Q700.594 1482.55 704.205 1482.55 Q707.839 1482.55 709.645 1479.01 Q711.473 1475.44 711.473 1468.33 Q711.473 1461.2 709.645 1457.66 Q707.839 1454.1 704.205 1454.1 M704.205 1450.39 Q710.015 1450.39 713.07 1455 Q716.149 1459.58 716.149 1468.33 Q716.149 1477.06 713.07 1481.67 Q710.015 1486.25 704.205 1486.25 Q698.395 1486.25 695.316 1481.67 Q692.26 1477.06 692.26 1468.33 Q692.26 1459.58 695.316 1455 Q698.395 1450.39 704.205 1450.39 Z" fill="#000000" fill-rule="nonzero" fill-opacity="1" /><path clip-path="url(#clip700)" d="M734.367 1454.1 Q730.756 1454.1 728.927 1457.66 Q727.121 1461.2 727.121 1468.33 Q727.121 1475.44 728.927 1479.01 Q730.756 1482.55 734.367 1482.55 Q738.001 1482.55 739.806 1479.01 Q741.635 1475.44 741.635 1468.33 Q741.635 1461.2 739.806 1457.66 Q738.001 1454.1 734.367 1454.1 M734.367 1450.39 Q740.177 1450.39 743.232 1455 Q746.311 1459.58 746.311 1468.33 Q746.311 1477.06 743.232 1481.67 Q740.177 1486.25 734.367 1486.25 Q728.556 1486.25 725.478 1481.67 Q722.422 1477.06 722.422 1468.33 Q722.422 1459.58 725.478 1455 Q728.556 1450.39 734.367 1450.39 Z" fill="#000000" fill-rule="nonzero" fill-opacity="1" /><path clip-path="url(#clip700)" d="M1065.96 1481.64 L1082.28 1481.64 L1082.28 1485.58 L1060.33 1485.58 L1060.33 1481.64 Q1062.99 1478.89 1067.58 1474.26 Q1072.18 1469.61 1073.37 1468.27 Q1075.61 1465.74 1076.49 1464.01 Q1077.39 1462.25 1077.39 1460.56 Q1077.39 1457.8 1075.45 1456.07 Q1073.53 1454.33 1070.43 1454.33 Q1068.23 1454.33 1065.77 1455.09 Q1063.34 1455.86 1060.56 1457.41 L1060.56 1452.69 Q1063.39 1451.55 1065.84 1450.97 Q1068.3 1450.39 1070.33 1450.39 Q1075.7 1450.39 1078.9 1453.08 Q1082.09 1455.77 1082.09 1460.26 Q1082.09 1462.39 1081.28 1464.31 Q1080.49 1466.2 1078.39 1468.8 Q1077.81 1469.47 1074.71 1472.69 Q1071.61 1475.88 1065.96 1481.64 Z" fill="#000000" fill-rule="nonzero" fill-opacity="1" /><path clip-path="url(#clip700)" d="M1102.09 1454.1 Q1098.48 1454.1 1096.65 1457.66 Q1094.85 1461.2 1094.85 1468.33 Q1094.85 1475.44 1096.65 1479.01 Q1098.48 1482.55 1102.09 1482.55 Q1105.73 1482.55 1107.53 1479.01 Q1109.36 1475.44 1109.36 1468.33 Q1109.36 1461.2 1107.53 1457.66 Q1105.73 1454.1 1102.09 1454.1 M1102.09 1450.39 Q1107.9 1450.39 1110.96 1455 Q1114.04 1459.58 1114.04 1468.33 Q1114.04 1477.06 1110.96 1481.67 Q1107.9 1486.25 1102.09 1486.25 Q1096.28 1486.25 1093.2 1481.67 Q1090.15 1477.06 1090.15 1468.33 Q1090.15 1459.58 1093.2 1455 Q1096.28 1450.39 1102.09 1450.39 Z" fill="#000000" fill-rule="nonzero" fill-opacity="1" /><path clip-path="url(#clip700)" d="M1132.25 1454.1 Q1128.64 1454.1 1126.81 1457.66 Q1125.01 1461.2 1125.01 1468.33 Q1125.01 1475.44 1126.81 1479.01 Q1128.64 1482.55 1132.25 1482.55 Q1135.89 1482.55 1137.69 1479.01 Q1139.52 1475.44 1139.52 1468.33 Q1139.52 1461.2 1137.69 1457.66 Q1135.89 1454.1 1132.25 1454.1 M1132.25 1450.39 Q1138.06 1450.39 1141.12 1455 Q1144.2 1459.58 1144.2 1468.33 Q1144.2 1477.06 1141.12 1481.67 Q1138.06 1486.25 1132.25 1486.25 Q1126.44 1486.25 1123.36 1481.67 Q1120.31 1477.06 1120.31 1468.33 Q1120.31 1459.58 1123.36 1455 Q1126.44 1450.39 1132.25 1450.39 Z" fill="#000000" fill-rule="nonzero" fill-opacity="1" /><path clip-path="url(#clip700)" d="M1473.05 1466.95 Q1476.4 1467.66 1478.28 1469.93 Q1480.18 1472.2 1480.18 1475.53 Q1480.18 1480.65 1476.66 1483.45 Q1473.14 1486.25 1466.66 1486.25 Q1464.48 1486.25 1462.17 1485.81 Q1459.87 1485.39 1457.42 1484.54 L1457.42 1480.02 Q1459.37 1481.16 1461.68 1481.74 Q1464 1482.32 1466.52 1482.32 Q1470.92 1482.32 1473.21 1480.58 Q1475.52 1478.84 1475.52 1475.53 Q1475.52 1472.48 1473.37 1470.77 Q1471.24 1469.03 1467.42 1469.03 L1463.39 1469.03 L1463.39 1465.19 L1467.61 1465.19 Q1471.06 1465.19 1472.88 1463.82 Q1474.71 1462.43 1474.71 1459.84 Q1474.71 1457.18 1472.81 1455.77 Q1470.94 1454.33 1467.42 1454.33 Q1465.5 1454.33 1463.3 1454.75 Q1461.1 1455.16 1458.46 1456.04 L1458.46 1451.88 Q1461.12 1451.14 1463.44 1450.77 Q1465.78 1450.39 1467.84 1450.39 Q1473.16 1450.39 1476.26 1452.83 Q1479.37 1455.23 1479.37 1459.35 Q1479.37 1462.22 1477.72 1464.21 Q1476.08 1466.18 1473.05 1466.95 Z" fill="#000000" fill-rule="nonzero" fill-opacity="1" /><path clip-path="url(#clip700)" d="M1499.04 1454.1 Q1495.43 1454.1 1493.6 1457.66 Q1491.8 1461.2 1491.8 1468.33 Q1491.8 1475.44 1493.6 1479.01 Q1495.43 1482.55 1499.04 1482.55 Q1502.68 1482.55 1504.48 1479.01 Q1506.31 1475.44 1506.31 1468.33 Q1506.31 1461.2 1504.48 1457.66 Q1502.68 1454.1 1499.04 1454.1 M1499.04 1450.39 Q1504.85 1450.39 1507.91 1455 Q1510.99 1459.58 1510.99 1468.33 Q1510.99 1477.06 1507.91 1481.67 Q1504.85 1486.25 1499.04 1486.25 Q1493.23 1486.25 1490.15 1481.67 Q1487.1 1477.06 1487.1 1468.33 Q1487.1 1459.58 1490.15 1455 Q1493.23 1450.39 1499.04 1450.39 Z" fill="#000000" fill-rule="nonzero" fill-opacity="1" /><path clip-path="url(#clip700)" d="M1529.2 1454.1 Q1525.59 1454.1 1523.76 1457.66 Q1521.96 1461.2 1521.96 1468.33 Q1521.96 1475.44 1523.76 1479.01 Q1525.59 1482.55 1529.2 1482.55 Q1532.84 1482.55 1534.64 1479.01 Q1536.47 1475.44 1536.47 1468.33 Q1536.47 1461.2 1534.64 1457.66 Q1532.84 1454.1 1529.2 1454.1 M1529.2 1450.39 Q1535.01 1450.39 1538.07 1455 Q1541.15 1459.58 1541.15 1468.33 Q1541.15 1477.06 1538.07 1481.67 Q1535.01 1486.25 1529.2 1486.25 Q1523.39 1486.25 1520.31 1481.67 Q1517.26 1477.06 1517.26 1468.33 Q1517.26 1459.58 1520.31 1455 Q1523.39 1450.39 1529.2 1450.39 Z" fill="#000000" fill-rule="nonzero" fill-opacity="1" /><path clip-path="url(#clip700)" d="M1869.39 1455.09 L1857.59 1473.54 L1869.39 1473.54 L1869.39 1455.09 M1868.17 1451.02 L1874.05 1451.02 L1874.05 1473.54 L1878.98 1473.54 L1878.98 1477.43 L1874.05 1477.43 L1874.05 1485.58 L1869.39 1485.58 L1869.39 1477.43 L1853.79 1477.43 L1853.79 1472.92 L1868.17 1451.02 Z" fill="#000000" fill-rule="nonzero" fill-opacity="1" /><path clip-path="url(#clip700)" d="M1896.71 1454.1 Q1893.1 1454.1 1891.27 1457.66 Q1889.46 1461.2 1889.46 1468.33 Q1889.46 1475.44 1891.27 1479.01 Q1893.1 1482.55 1896.71 1482.55 Q1900.34 1482.55 1902.15 1479.01 Q1903.98 1475.44 1903.98 1468.33 Q1903.98 1461.2 1902.15 1457.66 Q1900.34 1454.1 1896.71 1454.1 M1896.71 1450.39 Q1902.52 1450.39 1905.57 1455 Q1908.65 1459.58 1908.65 1468.33 Q1908.65 1477.06 1905.57 1481.67 Q1902.52 1486.25 1896.71 1486.25 Q1890.9 1486.25 1887.82 1481.67 Q1884.76 1477.06 1884.76 1468.33 Q1884.76 1459.58 1887.82 1455 Q1890.9 1450.39 1896.71 1450.39 Z" fill="#000000" fill-rule="nonzero" fill-opacity="1" /><path clip-path="url(#clip700)" d="M1926.87 1454.1 Q1923.26 1454.1 1921.43 1457.66 Q1919.62 1461.2 1919.62 1468.33 Q1919.62 1475.44 1921.43 1479.01 Q1923.26 1482.55 1926.87 1482.55 Q1930.5 1482.55 1932.31 1479.01 Q1934.14 1475.44 1934.14 1468.33 Q1934.14 1461.2 1932.31 1457.66 Q1930.5 1454.1 1926.87 1454.1 M1926.87 1450.39 Q1932.68 1450.39 1935.74 1455 Q1938.81 1459.58 1938.81 1468.33 Q1938.81 1477.06 1935.74 1481.67 Q1932.68 1486.25 1926.87 1486.25 Q1921.06 1486.25 1917.98 1481.67 Q1914.93 1477.06 1914.93 1468.33 Q1914.93 1459.58 1917.98 1455 Q1921.06 1450.39 1926.87 1450.39 Z" fill="#000000" fill-rule="nonzero" fill-opacity="1" /><path clip-path="url(#clip700)" d="M2252.94 1451.02 L2271.3 1451.02 L2271.3 1454.96 L2257.22 1454.96 L2257.22 1463.43 Q2258.24 1463.08 2259.26 1462.92 Q2260.28 1462.73 2261.3 1462.73 Q2267.08 1462.73 2270.46 1465.9 Q2273.84 1469.08 2273.84 1474.49 Q2273.84 1480.07 2270.37 1483.17 Q2266.9 1486.25 2260.58 1486.25 Q2258.4 1486.25 2256.13 1485.88 Q2253.89 1485.51 2251.48 1484.77 L2251.48 1480.07 Q2253.57 1481.2 2255.79 1481.76 Q2258.01 1482.32 2260.49 1482.32 Q2264.49 1482.32 2266.83 1480.21 Q2269.17 1478.1 2269.17 1474.49 Q2269.17 1470.88 2266.83 1468.77 Q2264.49 1466.67 2260.49 1466.67 Q2258.61 1466.67 2256.74 1467.08 Q2254.88 1467.5 2252.94 1468.38 L2252.94 1451.02 Z" fill="#000000" fill-rule="nonzero" fill-opacity="1" /><path clip-path="url(#clip700)" d="M2293.06 1454.1 Q2289.44 1454.1 2287.62 1457.66 Q2285.81 1461.2 2285.81 1468.33 Q2285.81 1475.44 2287.62 1479.01 Q2289.44 1482.55 2293.06 1482.55 Q2296.69 1482.55 2298.5 1479.01 Q2300.32 1475.44 2300.32 1468.33 Q2300.32 1461.2 2298.5 1457.66 Q2296.69 1454.1 2293.06 1454.1 M2293.06 1450.39 Q2298.87 1450.39 2301.92 1455 Q2305 1459.58 2305 1468.33 Q2305 1477.06 2301.92 1481.67 Q2298.87 1486.25 2293.06 1486.25 Q2287.25 1486.25 2284.17 1481.67 Q2281.11 1477.06 2281.11 1468.33 Q2281.11 1459.58 2284.17 1455 Q2287.25 1450.39 2293.06 1450.39 Z" fill="#000000" fill-rule="nonzero" fill-opacity="1" /><path clip-path="url(#clip700)" d="M2323.22 1454.1 Q2319.61 1454.1 2317.78 1457.66 Q2315.97 1461.2 2315.97 1468.33 Q2315.97 1475.44 2317.78 1479.01 Q2319.61 1482.55 2323.22 1482.55 Q2326.85 1482.55 2328.66 1479.01 Q2330.49 1475.44 2330.49 1468.33 Q2330.49 1461.2 2328.66 1457.66 Q2326.85 1454.1 2323.22 1454.1 M2323.22 1450.39 Q2329.03 1450.39 2332.08 1455 Q2335.16 1459.58 2335.16 1468.33 Q2335.16 1477.06 2332.08 1481.67 Q2329.03 1486.25 2323.22 1486.25 Q2317.41 1486.25 2314.33 1481.67 Q2311.27 1477.06 2311.27 1468.33 Q2311.27 1459.58 2314.33 1455 Q2317.41 1450.39 2323.22 1450.39 Z" fill="#000000" fill-rule="nonzero" fill-opacity="1" /><path clip-path="url(#clip700)" d="M1208.93 1520.52 L1238.98 1520.52 L1238.98 1525.93 L1215.36 1525.93 L1215.36 1540 L1237.99 1540 L1237.99 1545.41 L1215.36 1545.41 L1215.36 1562.63 L1239.55 1562.63 L1239.55 1568.04 L1208.93 1568.04 L1208.93 1520.52 Z" fill="#000000" fill-rule="nonzero" fill-opacity="1" /><path clip-path="url(#clip700)" d="M1255.53 1562.7 L1255.53 1581.6 L1249.64 1581.6 L1249.64 1532.4 L1255.53 1532.4 L1255.53 1537.81 Q1257.37 1534.62 1260.17 1533.1 Q1263.01 1531.54 1266.92 1531.54 Q1273.41 1531.54 1277.46 1536.69 Q1281.53 1541.85 1281.53 1550.25 Q1281.53 1558.65 1277.46 1563.81 Q1273.41 1568.97 1266.92 1568.97 Q1263.01 1568.97 1260.17 1567.44 Q1257.37 1565.88 1255.53 1562.7 M1275.45 1550.25 Q1275.45 1543.79 1272.78 1540.13 Q1270.14 1536.44 1265.49 1536.44 Q1260.84 1536.44 1258.17 1540.13 Q1255.53 1543.79 1255.53 1550.25 Q1255.53 1556.71 1258.17 1560.4 Q1260.84 1564.07 1265.49 1564.07 Q1270.14 1564.07 1272.78 1560.4 Q1275.45 1556.71 1275.45 1550.25 Z" fill="#000000" fill-rule="nonzero" fill-opacity="1" /><path clip-path="url(#clip700)" d="M1305.05 1536.5 Q1300.34 1536.5 1297.6 1540.19 Q1294.87 1543.85 1294.87 1550.25 Q1294.87 1556.65 1297.57 1560.34 Q1300.31 1564 1305.05 1564 Q1309.73 1564 1312.47 1560.31 Q1315.2 1556.62 1315.2 1550.25 Q1315.2 1543.92 1312.47 1540.23 Q1309.73 1536.5 1305.05 1536.5 M1305.05 1531.54 Q1312.69 1531.54 1317.05 1536.5 Q1321.41 1541.47 1321.41 1550.25 Q1321.41 1559 1317.05 1564 Q1312.69 1568.97 1305.05 1568.97 Q1297.38 1568.97 1293.02 1564 Q1288.69 1559 1288.69 1550.25 Q1288.69 1541.47 1293.02 1536.5 Q1297.38 1531.54 1305.05 1531.54 Z" fill="#000000" fill-rule="nonzero" fill-opacity="1" /><path clip-path="url(#clip700)" d="M1356.77 1533.76 L1356.77 1539.24 Q1354.29 1537.87 1351.78 1537.2 Q1349.29 1536.5 1346.75 1536.5 Q1341.05 1536.5 1337.9 1540.13 Q1334.75 1543.73 1334.75 1550.25 Q1334.75 1556.78 1337.9 1560.4 Q1341.05 1564 1346.75 1564 Q1349.29 1564 1351.78 1563.33 Q1354.29 1562.63 1356.77 1561.26 L1356.77 1566.68 Q1354.32 1567.82 1351.68 1568.39 Q1349.07 1568.97 1346.11 1568.97 Q1338.06 1568.97 1333.32 1563.91 Q1328.57 1558.85 1328.57 1550.25 Q1328.57 1541.53 1333.35 1536.53 Q1338.15 1531.54 1346.49 1531.54 Q1349.2 1531.54 1351.78 1532.11 Q1354.35 1532.65 1356.77 1533.76 Z" fill="#000000" fill-rule="nonzero" fill-opacity="1" /><path clip-path="url(#clip700)" d="M1396.59 1546.53 L1396.59 1568.04 L1390.73 1568.04 L1390.73 1546.72 Q1390.73 1541.66 1388.76 1539.14 Q1386.79 1536.63 1382.84 1536.63 Q1378.1 1536.63 1375.36 1539.65 Q1372.62 1542.68 1372.62 1547.9 L1372.62 1568.04 L1366.74 1568.04 L1366.74 1518.52 L1372.62 1518.52 L1372.62 1537.93 Q1374.72 1534.72 1377.56 1533.13 Q1380.42 1531.54 1384.15 1531.54 Q1390.29 1531.54 1393.44 1535.36 Q1396.59 1539.14 1396.59 1546.53 Z" fill="#000000" fill-rule="nonzero" fill-opacity="1" /><polyline clip-path="url(#clip700)" style="stroke:#000000; stroke-linecap:round; stroke-linejoin:round; stroke-width:4; stroke-opacity:1; fill:none" points="252.764,1423.18 252.764,47.2441 "/>
<polyline clip-path="url(#clip700)" style="stroke:#000000; stroke-linecap:round; stroke-linejoin:round; stroke-width:4; stroke-opacity:1; fill:none" points="252.764,958.604 271.662,958.604 "/>
<polyline clip-path="url(#clip700)" style="stroke:#000000; stroke-linecap:round; stroke-linejoin:round; stroke-width:4; stroke-opacity:1; fill:none" points="252.764,346.423 271.662,346.423 "/>
<path clip-path="url(#clip700)" d="M114.931 978.397 L122.57 978.397 L122.57 952.031 L114.26 953.698 L114.26 949.439 L122.524 947.772 L127.2 947.772 L127.2 978.397 L134.839 978.397 L134.839 982.332 L114.931 982.332 L114.931 978.397 Z" fill="#000000" fill-rule="nonzero" fill-opacity="1" /><path clip-path="url(#clip700)" d="M154.283 950.851 Q150.672 950.851 148.843 954.415 Q147.038 957.957 147.038 965.087 Q147.038 972.193 148.843 975.758 Q150.672 979.299 154.283 979.299 Q157.917 979.299 159.723 975.758 Q161.552 972.193 161.552 965.087 Q161.552 957.957 159.723 954.415 Q157.917 950.851 154.283 950.851 M154.283 947.147 Q160.093 947.147 163.149 951.753 Q166.227 956.337 166.227 965.087 Q166.227 973.813 163.149 978.42 Q160.093 983.003 154.283 983.003 Q148.473 983.003 145.394 978.42 Q142.339 973.813 142.339 965.087 Q142.339 956.337 145.394 951.753 Q148.473 947.147 154.283 947.147 Z" fill="#000000" fill-rule="nonzero" fill-opacity="1" /><path clip-path="url(#clip700)" d="M166.227 941.248 L190.339 941.248 L190.339 944.446 L166.227 944.446 L166.227 941.248 Z" fill="#000000" fill-rule="nonzero" fill-opacity="1" /><path clip-path="url(#clip700)" d="M208.978 930.152 L199.386 945.141 L208.978 945.141 L208.978 930.152 M207.981 926.841 L212.758 926.841 L212.758 945.141 L216.764 945.141 L216.764 948.301 L212.758 948.301 L212.758 954.921 L208.978 954.921 L208.978 948.301 L196.301 948.301 L196.301 944.634 L207.981 926.841 Z" fill="#000000" fill-rule="nonzero" fill-opacity="1" /><path clip-path="url(#clip700)" d="M116.624 366.215 L124.263 366.215 L124.263 339.85 L115.953 341.517 L115.953 337.257 L124.217 335.591 L128.893 335.591 L128.893 366.215 L136.531 366.215 L136.531 370.151 L116.624 370.151 L116.624 366.215 Z" fill="#000000" fill-rule="nonzero" fill-opacity="1" /><path clip-path="url(#clip700)" d="M155.976 338.669 Q152.365 338.669 150.536 342.234 Q148.73 345.776 148.73 352.905 Q148.73 360.012 150.536 363.577 Q152.365 367.118 155.976 367.118 Q159.61 367.118 161.416 363.577 Q163.244 360.012 163.244 352.905 Q163.244 345.776 161.416 342.234 Q159.61 338.669 155.976 338.669 M155.976 334.966 Q161.786 334.966 164.841 339.572 Q167.92 344.155 167.92 352.905 Q167.92 361.632 164.841 366.239 Q161.786 370.822 155.976 370.822 Q150.166 370.822 147.087 366.239 Q144.031 361.632 144.031 352.905 Q144.031 344.155 147.087 339.572 Q150.166 334.966 155.976 334.966 Z" fill="#000000" fill-rule="nonzero" fill-opacity="1" /><path clip-path="url(#clip700)" d="M167.92 329.067 L192.032 329.067 L192.032 332.264 L167.92 332.264 L167.92 329.067 Z" fill="#000000" fill-rule="nonzero" fill-opacity="1" /><path clip-path="url(#clip700)" d="M203.504 339.543 L216.764 339.543 L216.764 342.74 L198.934 342.74 L198.934 339.543 Q201.097 337.305 204.821 333.543 Q208.564 329.763 209.523 328.672 Q211.347 326.622 212.062 325.211 Q212.796 323.782 212.796 322.409 Q212.796 320.171 211.216 318.76 Q209.655 317.35 207.134 317.35 Q205.348 317.35 203.354 317.97 Q201.379 318.591 199.122 319.851 L199.122 316.014 Q201.417 315.093 203.41 314.623 Q205.404 314.152 207.059 314.152 Q211.423 314.152 214.018 316.334 Q216.613 318.516 216.613 322.165 Q216.613 323.895 215.955 325.456 Q215.316 326.998 213.604 329.105 Q213.134 329.65 210.614 332.264 Q208.094 334.86 203.504 339.543 Z" fill="#000000" fill-rule="nonzero" fill-opacity="1" /><path clip-path="url(#clip700)" d="M22.818 1007.04 L46.4666 1015.76 L46.4666 998.291 L22.818 1007.04 M16.4842 1010.67 L16.4842 1003.38 L64.0042 985.273 L64.0042 991.957 L51.8138 996.286 L51.8138 1017.71 L64.0042 1022.03 L64.0042 1028.81 L16.4842 1010.67 Z" fill="#000000" fill-rule="nonzero" fill-opacity="1" /><path clip-path="url(#clip700)" d="M28.3562 986.61 L28.3562 980.403 L58.275 969.263 L28.3562 958.123 L28.3562 951.917 L64.0042 965.285 L64.0042 973.242 L28.3562 986.61 Z" fill="#000000" fill-rule="nonzero" fill-opacity="1" /><path clip-path="url(#clip700)" d="M44.7161 913.34 L47.5806 913.34 L47.5806 940.267 Q53.6281 939.885 56.8109 936.639 Q59.9619 933.361 59.9619 927.536 Q59.9619 924.162 59.1344 921.011 Q58.3069 917.828 56.6518 914.709 L62.1899 914.709 Q63.5267 917.86 64.227 921.17 Q64.9272 924.48 64.9272 927.886 Q64.9272 936.416 59.9619 941.413 Q54.9967 946.378 46.5303 946.378 Q37.7774 946.378 32.6531 941.668 Q27.4968 936.925 27.4968 928.905 Q27.4968 921.711 32.1438 917.542 Q36.7589 913.34 44.7161 913.34 M42.9973 919.197 Q38.1912 919.26 35.3266 921.902 Q32.4621 924.512 32.4621 928.841 Q32.4621 933.742 35.2312 936.702 Q38.0002 939.631 43.0292 940.076 L42.9973 919.197 Z" fill="#000000" fill-rule="nonzero" fill-opacity="1" /><path clip-path="url(#clip700)" d="M33.8307 883.071 Q33.2578 884.058 33.0032 885.236 Q32.7167 886.382 32.7167 887.782 Q32.7167 892.747 35.9632 895.421 Q39.1779 898.063 45.2253 898.063 L64.0042 898.063 L64.0042 903.951 L28.3562 903.951 L28.3562 898.063 L33.8944 898.063 Q30.6479 896.217 29.0883 893.257 Q27.4968 890.296 27.4968 886.063 Q27.4968 885.459 27.5923 884.727 Q27.656 883.994 27.8151 883.103 L33.8307 883.071 Z" fill="#000000" fill-rule="nonzero" fill-opacity="1" /><path clip-path="url(#clip700)" d="M46.0847 860.728 Q46.0847 867.826 47.7079 870.563 Q49.3312 873.3 53.2461 873.3 Q56.3653 873.3 58.2114 871.263 Q60.0256 869.194 60.0256 865.661 Q60.0256 860.791 56.5881 857.863 Q53.1188 854.903 47.3897 854.903 L46.0847 854.903 L46.0847 860.728 M43.6657 849.047 L64.0042 849.047 L64.0042 854.903 L58.5933 854.903 Q61.8398 856.908 63.3994 859.9 Q64.9272 862.892 64.9272 867.221 Q64.9272 872.695 61.8716 875.942 Q58.7843 879.157 53.6281 879.157 Q47.6125 879.157 44.5569 875.146 Q41.5014 871.104 41.5014 863.115 L41.5014 854.903 L40.9285 854.903 Q36.8862 854.903 34.6901 857.577 Q32.4621 860.219 32.4621 865.025 Q32.4621 868.08 33.1941 870.977 Q33.9262 873.873 35.3903 876.547 L29.9795 876.547 Q28.7381 873.332 28.1334 870.308 Q27.4968 867.284 27.4968 864.42 Q27.4968 856.686 31.5072 852.866 Q35.5176 849.047 43.6657 849.047 Z" fill="#000000" fill-rule="nonzero" fill-opacity="1" /><path clip-path="url(#clip700)" d="M45.7664 813.526 Q39.4007 813.526 35.8996 816.168 Q32.3984 818.778 32.3984 823.52 Q32.3984 828.231 35.8996 830.873 Q39.4007 833.483 45.7664 833.483 Q52.1003 833.483 55.6014 830.873 Q59.1026 828.231 59.1026 823.52 Q59.1026 818.778 55.6014 816.168 Q52.1003 813.526 45.7664 813.526 M59.58 807.67 Q68.683 807.67 73.1071 811.712 Q77.5631 815.754 77.5631 824.093 Q77.5631 827.181 77.0857 829.918 Q76.6401 832.655 75.6852 835.233 L69.9879 835.233 Q71.3884 832.655 72.0568 830.141 Q72.7252 827.626 72.7252 825.016 Q72.7252 819.255 69.7015 816.391 Q66.7096 813.526 60.6303 813.526 L57.7339 813.526 Q60.885 815.34 62.4446 818.173 Q64.0042 821.006 64.0042 824.953 Q64.0042 831.509 59.0071 835.52 Q54.01 839.53 45.7664 839.53 Q37.491 839.53 32.4939 835.52 Q27.4968 831.509 27.4968 824.953 Q27.4968 821.006 29.0564 818.173 Q30.616 815.34 33.7671 813.526 L28.3562 813.526 L28.3562 807.67 L59.58 807.67 Z" fill="#000000" fill-rule="nonzero" fill-opacity="1" /><path clip-path="url(#clip700)" d="M44.7161 765.115 L47.5806 765.115 L47.5806 792.042 Q53.6281 791.66 56.8109 788.413 Q59.9619 785.135 59.9619 779.31 Q59.9619 775.937 59.1344 772.786 Q58.3069 769.603 56.6518 766.484 L62.1899 766.484 Q63.5267 769.635 64.227 772.945 Q64.9272 776.255 64.9272 779.661 Q64.9272 788.191 59.9619 793.188 Q54.9967 798.153 46.5303 798.153 Q37.7774 798.153 32.6531 793.442 Q27.4968 788.7 27.4968 780.679 Q27.4968 773.486 32.1438 769.316 Q36.7589 765.115 44.7161 765.115 M42.9973 770.971 Q38.1912 771.035 35.3266 773.677 Q32.4621 776.287 32.4621 780.615 Q32.4621 785.517 35.2312 788.477 Q38.0002 791.405 43.0292 791.851 L42.9973 770.971 Z" fill="#000000" fill-rule="nonzero" fill-opacity="1" /><path clip-path="url(#clip700)" d="M16.4842 734.528 L16.4842 724.947 L48.8219 712.821 L16.4842 700.63 L16.4842 691.05 L64.0042 691.05 L64.0042 697.32 L22.277 697.32 L54.8694 709.574 L54.8694 716.035 L22.277 728.289 L64.0042 728.289 L64.0042 734.528 L16.4842 734.528 Z" fill="#000000" fill-rule="nonzero" fill-opacity="1" /><path clip-path="url(#clip700)" d="M18.0438 649.8 L24.314 649.8 Q22.5634 653.46 21.704 656.707 Q20.8447 659.953 20.8447 662.977 Q20.8447 668.229 22.8817 671.093 Q24.9187 673.926 28.6745 673.926 Q31.8255 673.926 33.4488 672.048 Q35.0402 670.139 36.0269 664.855 L36.8226 660.972 Q38.1912 653.779 41.6605 650.373 Q45.098 646.936 50.8908 646.936 Q57.7976 646.936 61.3624 651.582 Q64.9272 656.198 64.9272 665.141 Q64.9272 668.515 64.1633 672.335 Q63.3994 676.122 61.9035 680.196 L55.2831 680.196 Q57.4793 676.281 58.5933 672.526 Q59.7073 668.77 59.7073 665.141 Q59.7073 659.635 57.543 656.643 Q55.3786 653.651 51.3682 653.651 Q47.8671 653.651 45.8937 655.816 Q43.9204 657.948 42.9337 662.85 L42.1698 666.765 Q40.7375 673.958 37.682 677.173 Q34.6264 680.387 29.1837 680.387 Q22.8817 680.387 19.2532 675.963 Q15.6248 671.507 15.6248 663.709 Q15.6248 660.367 16.2295 656.898 Q16.8343 653.429 18.0438 649.8 Z" fill="#000000" fill-rule="nonzero" fill-opacity="1" /><path clip-path="url(#clip700)" d="M16.4842 636.91 L16.4842 606.863 L21.895 606.863 L21.895 630.48 L35.9632 630.48 L35.9632 607.85 L41.3741 607.85 L41.3741 630.48 L58.5933 630.48 L58.5933 606.29 L64.0042 606.29 L64.0042 636.91 L16.4842 636.91 Z" fill="#000000" fill-rule="nonzero" fill-opacity="1" /><path clip-path="url(#clip700)" d="M16.4842 575.003 L16.4842 568.574 L58.5933 568.574 L58.5933 545.434 L64.0042 545.434 L64.0042 575.003 L16.4842 575.003 Z" fill="#000000" fill-rule="nonzero" fill-opacity="1" /><path clip-path="url(#clip700)" d="M32.4621 526.274 Q32.4621 530.984 36.1542 533.721 Q39.8145 536.459 46.212 536.459 Q52.6095 536.459 56.3017 533.753 Q59.9619 531.016 59.9619 526.274 Q59.9619 521.595 56.2698 518.858 Q52.5777 516.12 46.212 516.12 Q39.8781 516.12 36.186 518.858 Q32.4621 521.595 32.4621 526.274 M27.4968 526.274 Q27.4968 518.635 32.4621 514.274 Q37.4273 509.914 46.212 509.914 Q54.9649 509.914 59.9619 514.274 Q64.9272 518.635 64.9272 526.274 Q64.9272 533.944 59.9619 538.305 Q54.9649 542.633 46.212 542.633 Q37.4273 542.633 32.4621 538.305 Q27.4968 533.944 27.4968 526.274 Z" fill="#000000" fill-rule="nonzero" fill-opacity="1" /><path clip-path="url(#clip700)" d="M29.4065 477.48 L34.9447 477.48 Q33.6716 479.963 33.035 482.637 Q32.3984 485.31 32.3984 488.175 Q32.3984 492.535 33.7352 494.731 Q35.072 496.896 37.7456 496.896 Q39.7826 496.896 40.9603 495.336 Q42.1061 493.777 43.1565 489.066 L43.6021 487.061 Q44.9389 480.822 47.3897 478.212 Q49.8086 475.571 54.1691 475.571 Q59.1344 475.571 62.0308 479.517 Q64.9272 483.432 64.9272 490.307 Q64.9272 493.172 64.3543 496.291 Q63.8132 499.378 62.6992 502.816 L56.6518 502.816 Q58.3387 499.569 59.198 496.418 Q60.0256 493.267 60.0256 490.18 Q60.0256 486.042 58.6251 483.814 Q57.1929 481.586 54.6147 481.586 Q52.2276 481.586 50.9545 483.21 Q49.6813 484.801 48.5037 490.244 L48.0262 492.281 Q46.8804 497.723 44.5251 500.142 Q42.138 502.561 38.0002 502.561 Q32.9713 502.561 30.2341 498.997 Q27.4968 495.432 27.4968 488.875 Q27.4968 485.629 27.9743 482.764 Q28.4517 479.899 29.4065 477.48 Z" fill="#000000" fill-rule="nonzero" fill-opacity="1" /><path clip-path="url(#clip700)" d="M29.4065 443.519 L34.9447 443.519 Q33.6716 446.002 33.035 448.676 Q32.3984 451.349 32.3984 454.214 Q32.3984 458.574 33.7352 460.77 Q35.072 462.935 37.7456 462.935 Q39.7826 462.935 40.9603 461.375 Q42.1061 459.816 43.1565 455.105 L43.6021 453.1 Q44.9389 446.861 47.3897 444.251 Q49.8086 441.61 54.1691 441.61 Q59.1344 441.61 62.0308 445.556 Q64.9272 449.471 64.9272 456.346 Q64.9272 459.211 64.3543 462.33 Q63.8132 465.417 62.6992 468.855 L56.6518 468.855 Q58.3387 465.608 59.198 462.457 Q60.0256 459.306 60.0256 456.219 Q60.0256 452.081 58.6251 449.853 Q57.1929 447.625 54.6147 447.625 Q52.2276 447.625 50.9545 449.249 Q49.6813 450.84 48.5037 456.283 L48.0262 458.32 Q46.8804 463.762 44.5251 466.181 Q42.138 468.6 38.0002 468.6 Q32.9713 468.6 30.2341 465.035 Q27.4968 461.471 27.4968 454.914 Q27.4968 451.667 27.9743 448.803 Q28.4517 445.938 29.4065 443.519 Z" fill="#000000" fill-rule="nonzero" fill-opacity="1" /><polyline clip-path="url(#clip702)" style="stroke:#009af9; stroke-linecap:round; stroke-linejoin:round; stroke-width:8; stroke-opacity:1; fill:none" points="312.198,86.1857 316.168,165.076 320.138,277.881 324.108,367.493 328.078,421.869 332.049,456.748 336.019,489.009 339.989,506.162 343.959,526.967 347.929,544.979 351.9,561.435 355.87,574.676 359.84,592.102 363.81,597.742 367.78,615.012 371.751,623.99 375.721,636.481 379.691,648.335 383.661,658.796 387.631,662.952 391.601,669.512 395.572,674.111 399.542,665.396 403.512,689.794 407.482,701.387 411.452,692.186 415.423,700.693 419.393,697.39 423.363,725.255 427.333,735.677 431.303,733.404 435.274,724.823 439.244,749.103 443.214,758.074 447.184,762.564 451.154,753.383 455.124,767.269 459.095,747.359 463.065,772.032 467.035,782.154 471.005,781.816 474.975,762.869 478.946,785.808 482.916,768.26 486.886,776.998 490.856,762.364 494.826,734.2 498.797,800.419 502.767,820.108 506.737,811.001 510.707,789.267 514.677,821.86 518.648,831.571 522.618,831.904 526.588,820.538 530.558,816.852 534.528,818.2 538.498,850.28 542.469,852.595 546.439,849.496 550.409,840.065 554.379,835.604 558.349,836.454 562.32,862.945 566.29,870.379 570.26,876.706 574.23,875.696 578.2,871.986 582.171,866.117 586.141,862.392 590.111,868.689 594.081,888.874 598.051,902.604 602.022,912.08 605.992,916.353 609.962,912.373 613.932,905.594 617.902,913.73 621.872,931.786 625.843,945.215 629.813,949.454 633.783,948.432 637.753,955.401 641.723,946.153 645.694,946.127 649.664,936.107 653.634,902.609 657.604,940.525 661.574,981.21 665.545,977.479 669.515,972.31 673.485,994.206 677.455,997.466 681.425,985.513 685.395,976.986 689.366,986.742 693.336,968.785 697.306,908.218 701.276,931.442 705.246,982.424 709.217,1021.75 713.187,1040.41 717.157,1040.56 721.127,1038.1 725.097,1019.45 729.068,1007.22 733.038,1037.86 737.008,1038.68 740.978,807.78 744.948,474.004 748.919,663.429 752.889,717.506 756.859,712.042 760.829,768.237 764.799,788.811 768.769,808.101 772.74,835.556 776.71,800.504 780.68,790.931 784.65,873.853 788.62,892.52 792.591,918.146 796.561,919.367 800.531,926.881 804.501,961.6 808.471,964.545 812.442,988.983 816.412,985.738 820.382,992.305 824.352,1014.84 828.322,1004.75 832.292,1029.41 836.263,1012.44 840.233,1042.8 844.203,1033.15 848.173,1047.66 852.143,1049.93 856.114,1052.39 860.084,1064.79 864.054,1050.73 868.024,1080.8 871.994,1038.77 875.965,1018.31 879.935,1048.52 883.905,1066.69 887.875,1036.04 891.845,1025.38 895.816,1010.28 899.786,765.391 903.756,652.097 907.726,812.203 911.696,935.047 915.666,966.694 919.637,986.734 923.607,1005.58 927.577,1020.69 931.547,985.356 935.517,790.697 939.488,994.89 943.458,1067.44 947.428,1066.38 951.398,1081.28 955.368,1088.74 959.339,1090.91 963.309,1033.27 967.279,1090.91 971.249,1078.58 975.219,1089.42 979.189,1076.11 983.16,1092.12 987.13,1082.73 991.1,1112.85 995.07,1101.3 999.04,1138.55 1003.01,1126.9 1006.98,1138.73 1010.95,1121.14 1014.92,1109.48 1018.89,1111.7 1022.86,1089.17 1026.83,1089.96 1030.8,1087.57 1034.77,1066.66 1038.74,1082.88 1042.71,1086 1046.68,1044.32 1050.65,1070.26 1054.62,1117.2 1058.59,1047.75 1062.56,1056.75 1066.53,1112.72 1070.5,1079.62 1074.47,1076.91 1078.44,1094.54 1082.41,1088.01 1086.38,1082.21 1090.35,1083.92 1094.32,1087.29 1098.3,1090.78 1102.27,1090.95 1106.24,1089.91 1110.21,1092.01 1114.18,1096.44 1118.15,1098.96 1122.12,1098.68 1126.09,1098.81 1130.06,1101.72 1134.03,1105.65 1138,1107.3 1141.97,1107.08 1145.94,1108.49 1149.91,1112.9 1153.88,1116.52 1157.85,1116.25 1161.82,1116.27 1165.79,1122.8 1169.76,1129.5 1173.73,1128.45 1177.7,1130.99 1181.67,1137.37 1185.64,1137.53 1189.61,1143.63 1193.58,1153.62 1197.55,1148.57 1201.52,1166.86 1205.49,1111.89 1209.46,1052.52 1213.43,997.937 1217.4,1018.49 1221.37,1007.34 1225.34,1120.96 1229.31,1240.32 1233.28,1221.55 1237.25,1123.63 1241.22,1080.38 1245.19,1139.05 1249.16,1207.17 1253.13,1205.02 1257.1,1159.83 1261.07,1116.5 1265.04,1120.37 1269.01,1106.34 1272.98,1086.03 1276.95,1141.77 1280.92,1208.07 1284.89,1200.79 1288.86,1161.26 1292.83,1142.21 1296.8,1133.73 1300.77,1137.4 1304.75,1179.81 1308.72,1183.06 1312.69,1171.04 1316.66,1130 1320.63,1093.87 1324.6,1003.6 1328.57,621.33 1332.54,607.96 1336.51,709.968 1340.48,812.105 1344.45,854.961 1348.42,913.304 1352.39,994.218 1356.36,1111.91 1360.33,1134.19 1364.3,1156.21 1368.27,1176.37 1372.24,1192.44 1376.21,1206.07 1380.18,1217.78 1384.15,1228.12 1388.12,1237.38 1392.09,1245.73 1396.06,1253.31 1400.03,1260.15 1404,1266.29 1407.97,1271.75 1411.94,1276.61 1415.91,1280.95 1419.88,1284.91 1423.85,1288.58 1427.82,1292.03 1431.79,1295.29 1435.76,1298.3 1439.73,1300.87 1443.7,1302.54 1447.67,1302.31 1451.64,1297.95 1455.61,1284.79 1459.58,1254.36 1463.55,1220.49 1467.52,1218.54 1471.49,928.868 1475.46,1054.07 1479.43,1173.12 1483.4,1235.04 1487.37,1239.9 1491.34,1274.64 1495.31,1297.77 1499.28,1307.42 1503.25,1308.16 1507.22,1301.1 1511.19,1281.06 1515.17,1240.05 1519.14,1181.81 1523.11,1138.5 1527.08,1157.33 1531.05,1242.17 1535.02,1314.28 1538.99,1339.95 1542.96,1345.55 1546.93,1341.89 1550.9,1324.08 1554.87,1275.62 1558.84,1181.76 1562.81,1053.96 1566.78,1006.34 1570.75,1173.5 1574.72,1314.55 1578.69,1313.22 1582.66,1311.52 1586.63,1304.78 1590.6,1284.1 1594.57,1244.46 1598.54,1183.72 1602.51,1113.64 1606.48,1077.11 1610.45,1108.09 1614.42,1234.45 1618.39,1334.73 1622.36,1335.52 1626.33,1314.01 1630.3,1290.17 1634.27,1238.37 1638.24,1145.24 1642.21,1060.35 1646.18,1071.74 1650.15,1248.61 1654.12,1362.78 1658.09,1355.61 1662.06,1308.58 1666.03,1272.88 1670,1216.53 1673.97,1115.33 1677.94,1059.36 1681.91,1095.91 1685.88,1307.33 1689.85,1347.39 1693.82,1322.5 1697.79,1289.59 1701.76,1270.63 1705.73,1196.27 1709.7,1108.89 1713.67,1100.3 1717.64,1161.03 1721.61,1304.49 1725.59,1377.59 1729.56,1365.07 1733.53,1302.89 1737.5,1268.49 1741.47,1252.43 1745.44,1115.34 1749.41,993.398 1753.38,1127.79 1757.35,1269.61 1761.32,1249.04 1765.29,1293.58 1769.26,1326.59 1773.23,1341.44 1777.2,1347.87 1781.17,1348.67 1785.14,1344.13 1789.11,1330.88 1793.08,1291.06 1797.05,1187.3 1801.02,1071.06 1804.99,1034.08 1808.96,1088.68 1812.93,1331.82 1816.9,1342.26 1820.87,1350.9 1824.84,1347.4 1828.81,1318.87 1832.78,1253.65 1836.75,1163.48 1840.72,1037.15 1844.69,606.186 1848.66,761.486 1852.63,823.882 1856.6,904.096 1860.57,919.735 1864.54,978.815 1868.51,955.334 1872.48,904.715 1876.45,1017.02 1880.42,1052.93 1884.39,1002.26 1888.36,1103.05 1892.33,1038.83 1896.3,1105.44 1900.27,1081.04 1904.24,1097.31 1908.21,1118.71 1912.18,1103.28 1916.15,1130.65 1920.12,1127.44 1924.09,1128.38 1928.06,1142.88 1932.03,1139.76 1936.01,1142.55 1939.98,1149.54 1943.95,1149.42 1947.92,1150.96 1951.89,1154.65 1955.86,1155.96 1959.83,1156.92 1963.8,1158.88 1967.77,1160.41 1971.74,1161.39 1975.71,1162.54 1979.68,1163.79 1983.65,1164.83 1987.62,1165.76 1991.59,1166.74 1995.56,1167.7 1999.53,1168.59 2003.5,1169.43 2007.47,1170.26 2011.44,1171.07 2015.41,1171.84 2019.38,1172.6 2023.35,1173.35 2027.32,1174.11 2031.29,1174.9 2035.26,1175.71 2039.23,1176.56 2043.2,1177.47 2047.17,1178.44 2051.14,1179.48 2055.11,1180.6 2059.08,1181.81 2063.05,1183.11 2067.02,1184.51 2070.99,1186.02 2074.96,1187.65 2078.93,1189.39 2082.9,1191.25 2086.87,1193.22 2090.84,1195.3 2094.81,1197.47 2098.78,1199.71 2102.75,1201.98 2106.72,1204.25 2110.69,1206.52 2114.66,1208.76 2118.63,1211.01 2122.6,1213.33 2126.57,1215.81 2130.54,1218.54 2134.51,1221.53 2138.48,1224.46 2142.45,1226.45 2146.43,1226.14 2150.4,1222.59 2154.37,1216.53 2158.34,1210.43 2162.31,1207.25 2166.28,1208.87 2170.25,1215.35 2174.22,1224.94 2178.19,1234.39 2182.16,1239.85 2186.13,1238.34 2190.1,1229.29 2194.07,1215.98 2198.04,1206.12 2202.01,1208.67 2205.98,1226.03 2209.95,1249.66 2213.92,1265.18 2217.89,1261.26 2221.86,1235.01 2225.83,1194.68 2229.8,1165.85 2233.77,1186.02 2237.74,1261.71 2241.71,1352.35 2245.68,1374.22 2249.65,1348.21 2253.62,1316.39 2257.59,1253.95 2261.56,1229.31 2265.53,1205.15 2269.5,1136.19 2273.47,1070.67 2277.44,1132.42 2281.41,1301.76 2285.38,1378.76 2289.35,1384.24 2293.32,1362.43 "/>
<path clip-path="url(#clip700)" d="M1768.82 196.789 L2282.76 196.789 L2282.76 93.1086 L1768.82 93.1086  Z" fill="#ffffff" fill-rule="evenodd" fill-opacity="1"/>
<polyline clip-path="url(#clip700)" style="stroke:#000000; stroke-linecap:round; stroke-linejoin:round; stroke-width:4; stroke-opacity:1; fill:none" points="1768.82,196.789 2282.76,196.789 2282.76,93.1086 1768.82,93.1086 1768.82,196.789 "/>
<polyline clip-path="url(#clip700)" style="stroke:#009af9; stroke-linecap:round; stroke-linejoin:round; stroke-width:8; stroke-opacity:1; fill:none" points="1792.16,144.949 1932.16,144.949 "/>
<path clip-path="url(#clip700)" d="M1955.49 127.669 L1984.73 127.669 L1984.73 131.604 L1972.46 131.604 L1972.46 162.229 L1967.76 162.229 L1967.76 131.604 L1955.49 131.604 L1955.49 127.669 Z" fill="#000000" fill-rule="nonzero" fill-opacity="1" /><path clip-path="url(#clip700)" d="M1997.11 140.284 Q1996.39 139.868 1995.54 139.682 Q1994.7 139.474 1993.68 139.474 Q1990.07 139.474 1988.13 141.835 Q1986.21 144.173 1986.21 148.571 L1986.21 162.229 L1981.92 162.229 L1981.92 136.303 L1986.21 136.303 L1986.21 140.331 Q1987.55 137.969 1989.7 136.835 Q1991.85 135.678 1994.93 135.678 Q1995.37 135.678 1995.91 135.747 Q1996.44 135.794 1997.09 135.909 L1997.11 140.284 Z" fill="#000000" fill-rule="nonzero" fill-opacity="1" /><path clip-path="url(#clip700)" d="M2013.36 149.196 Q2008.2 149.196 2006.21 150.377 Q2004.22 151.557 2004.22 154.405 Q2004.22 156.673 2005.7 158.016 Q2007.2 159.335 2009.77 159.335 Q2013.31 159.335 2015.44 156.835 Q2017.6 154.312 2017.6 150.145 L2017.6 149.196 L2013.36 149.196 M2021.85 147.437 L2021.85 162.229 L2017.6 162.229 L2017.6 158.293 Q2016.14 160.655 2013.96 161.789 Q2011.79 162.9 2008.64 162.9 Q2004.66 162.9 2002.29 160.678 Q1999.96 158.432 1999.96 154.682 Q1999.96 150.307 2002.87 148.085 Q2005.81 145.863 2011.62 145.863 L2017.6 145.863 L2017.6 145.446 Q2017.6 142.507 2015.65 140.909 Q2013.73 139.289 2010.23 139.289 Q2008.01 139.289 2005.91 139.821 Q2003.8 140.354 2001.85 141.419 L2001.85 137.483 Q2004.19 136.581 2006.39 136.141 Q2008.59 135.678 2010.67 135.678 Q2016.3 135.678 2019.08 138.594 Q2021.85 141.511 2021.85 147.437 Z" fill="#000000" fill-rule="nonzero" fill-opacity="1" /><path clip-path="url(#clip700)" d="M2030.63 136.303 L2034.89 136.303 L2034.89 162.229 L2030.63 162.229 L2030.63 136.303 M2030.63 126.21 L2034.89 126.21 L2034.89 131.604 L2030.63 131.604 L2030.63 126.21 Z" fill="#000000" fill-rule="nonzero" fill-opacity="1" /><path clip-path="url(#clip700)" d="M2065.35 146.581 L2065.35 162.229 L2061.09 162.229 L2061.09 146.719 Q2061.09 143.039 2059.66 141.21 Q2058.22 139.382 2055.35 139.382 Q2051.9 139.382 2049.91 141.581 Q2047.92 143.78 2047.92 147.576 L2047.92 162.229 L2043.64 162.229 L2043.64 136.303 L2047.92 136.303 L2047.92 140.331 Q2049.45 137.993 2051.51 136.835 Q2053.59 135.678 2056.3 135.678 Q2060.77 135.678 2063.06 138.456 Q2065.35 141.21 2065.35 146.581 Z" fill="#000000" fill-rule="nonzero" fill-opacity="1" /><path clip-path="url(#clip700)" d="M2073.85 136.303 L2078.1 136.303 L2078.1 162.229 L2073.85 162.229 L2073.85 136.303 M2073.85 126.21 L2078.1 126.21 L2078.1 131.604 L2073.85 131.604 L2073.85 126.21 Z" fill="#000000" fill-rule="nonzero" fill-opacity="1" /><path clip-path="url(#clip700)" d="M2108.57 146.581 L2108.57 162.229 L2104.31 162.229 L2104.31 146.719 Q2104.31 143.039 2102.87 141.21 Q2101.44 139.382 2098.57 139.382 Q2095.12 139.382 2093.13 141.581 Q2091.14 143.78 2091.14 147.576 L2091.14 162.229 L2086.85 162.229 L2086.85 136.303 L2091.14 136.303 L2091.14 140.331 Q2092.66 137.993 2094.72 136.835 Q2096.81 135.678 2099.52 135.678 Q2103.98 135.678 2106.28 138.456 Q2108.57 141.21 2108.57 146.581 Z" fill="#000000" fill-rule="nonzero" fill-opacity="1" /><path clip-path="url(#clip700)" d="M2134.12 148.965 Q2134.12 144.335 2132.2 141.789 Q2130.3 139.243 2126.85 139.243 Q2123.43 139.243 2121.51 141.789 Q2119.61 144.335 2119.61 148.965 Q2119.61 153.571 2121.51 156.118 Q2123.43 158.664 2126.85 158.664 Q2130.3 158.664 2132.2 156.118 Q2134.12 153.571 2134.12 148.965 M2138.38 159.011 Q2138.38 165.631 2135.44 168.849 Q2132.5 172.09 2126.44 172.09 Q2124.19 172.09 2122.2 171.742 Q2120.21 171.418 2118.34 170.724 L2118.34 166.58 Q2120.21 167.599 2122.04 168.085 Q2123.87 168.571 2125.77 168.571 Q2129.96 168.571 2132.04 166.372 Q2134.12 164.196 2134.12 159.775 L2134.12 157.668 Q2132.8 159.96 2130.74 161.094 Q2128.68 162.229 2125.81 162.229 Q2121.04 162.229 2118.13 158.594 Q2115.21 154.96 2115.21 148.965 Q2115.21 142.946 2118.13 139.312 Q2121.04 135.678 2125.81 135.678 Q2128.68 135.678 2130.74 136.812 Q2132.8 137.946 2134.12 140.238 L2134.12 136.303 L2138.38 136.303 L2138.38 159.011 Z" fill="#000000" fill-rule="nonzero" fill-opacity="1" /><path clip-path="url(#clip700)" d="M2162.41 127.669 L2167.09 127.669 L2167.09 158.293 L2183.91 158.293 L2183.91 162.229 L2162.41 162.229 L2162.41 127.669 Z" fill="#000000" fill-rule="nonzero" fill-opacity="1" /><path clip-path="url(#clip700)" d="M2197.85 139.289 Q2194.42 139.289 2192.43 141.974 Q2190.44 144.636 2190.44 149.289 Q2190.44 153.942 2192.41 156.627 Q2194.4 159.289 2197.85 159.289 Q2201.25 159.289 2203.24 156.604 Q2205.23 153.918 2205.23 149.289 Q2205.23 144.682 2203.24 141.997 Q2201.25 139.289 2197.85 139.289 M2197.85 135.678 Q2203.4 135.678 2206.58 139.289 Q2209.75 142.9 2209.75 149.289 Q2209.75 155.655 2206.58 159.289 Q2203.4 162.9 2197.85 162.9 Q2192.27 162.9 2189.1 159.289 Q2185.95 155.655 2185.95 149.289 Q2185.95 142.9 2189.1 139.289 Q2192.27 135.678 2197.85 135.678 Z" fill="#000000" fill-rule="nonzero" fill-opacity="1" /><path clip-path="url(#clip700)" d="M2233.34 137.067 L2233.34 141.094 Q2231.53 140.169 2229.59 139.706 Q2227.64 139.243 2225.56 139.243 Q2222.39 139.243 2220.79 140.215 Q2219.21 141.187 2219.21 143.131 Q2219.21 144.613 2220.35 145.469 Q2221.48 146.303 2224.91 147.067 L2226.37 147.391 Q2230.9 148.363 2232.8 150.145 Q2234.72 151.905 2234.72 155.076 Q2234.72 158.687 2231.85 160.793 Q2229.01 162.9 2224.01 162.9 Q2221.92 162.9 2219.65 162.483 Q2217.41 162.09 2214.91 161.28 L2214.91 156.881 Q2217.27 158.108 2219.56 158.733 Q2221.85 159.335 2224.1 159.335 Q2227.11 159.335 2228.73 158.317 Q2230.35 157.275 2230.35 155.4 Q2230.35 153.664 2229.17 152.738 Q2228.01 151.812 2224.05 150.956 L2222.57 150.608 Q2218.61 149.775 2216.85 148.062 Q2215.09 146.326 2215.09 143.317 Q2215.09 139.659 2217.69 137.669 Q2220.28 135.678 2225.05 135.678 Q2227.41 135.678 2229.49 136.025 Q2231.58 136.372 2233.34 137.067 Z" fill="#000000" fill-rule="nonzero" fill-opacity="1" /><path clip-path="url(#clip700)" d="M2258.03 137.067 L2258.03 141.094 Q2256.23 140.169 2254.28 139.706 Q2252.34 139.243 2250.26 139.243 Q2247.09 139.243 2245.49 140.215 Q2243.91 141.187 2243.91 143.131 Q2243.91 144.613 2245.05 145.469 Q2246.18 146.303 2249.61 147.067 L2251.07 147.391 Q2255.6 148.363 2257.5 150.145 Q2259.42 151.905 2259.42 155.076 Q2259.42 158.687 2256.55 160.793 Q2253.71 162.9 2248.71 162.9 Q2246.62 162.9 2244.35 162.483 Q2242.11 162.09 2239.61 161.28 L2239.61 156.881 Q2241.97 158.108 2244.26 158.733 Q2246.55 159.335 2248.8 159.335 Q2251.81 159.335 2253.43 158.317 Q2255.05 157.275 2255.05 155.4 Q2255.05 153.664 2253.87 152.738 Q2252.71 151.812 2248.75 150.956 L2247.27 150.608 Q2243.31 149.775 2241.55 148.062 Q2239.79 146.326 2239.79 143.317 Q2239.79 139.659 2242.39 137.669 Q2244.98 135.678 2249.75 135.678 Q2252.11 135.678 2254.19 136.025 Q2256.27 136.372 2258.03 137.067 Z" fill="#000000" fill-rule="nonzero" fill-opacity="1" /></svg>
