<?xml version="1.0" encoding="utf-8"?>
<svg xmlns="http://www.w3.org/2000/svg" xmlns:xlink="http://www.w3.org/1999/xlink" width="600" height="400" viewBox="0 0 2400 1600">
<defs>
  <clipPath id="clip140">
    <rect x="0" y="0" width="2400" height="1600"/>
  </clipPath>
</defs>
<path clip-path="url(#clip140)" d="M0 1600 L2400 1600 L2400 8.88178e-14 L0 8.88178e-14  Z" fill="#ffffff" fill-rule="evenodd" fill-opacity="1"/>
<defs>
  <clipPath id="clip141">
    <rect x="480" y="0" width="1681" height="1600"/>
  </clipPath>
</defs>
<path clip-path="url(#clip140)" d="M252.764 1423.18 L2352.76 1423.18 L2352.76 47.2441 L252.764 47.2441  Z" fill="#f2f2f2" fill-rule="evenodd" fill-opacity="1"/>
<defs>
  <clipPath id="clip142">
    <rect x="252" y="47" width="2101" height="1377"/>
  </clipPath>
</defs>
<polyline clip-path="url(#clip142)" style="stroke:#000000; stroke-linecap:round; stroke-linejoin:round; stroke-width:2; stroke-opacity:0.1; fill:none" points="308.121,1423.18 308.121,47.2441 "/>
<polyline clip-path="url(#clip142)" style="stroke:#000000; stroke-linecap:round; stroke-linejoin:round; stroke-width:2; stroke-opacity:0.1; fill:none" points="715.76,1423.18 715.76,47.2441 "/>
<polyline clip-path="url(#clip142)" style="stroke:#000000; stroke-linecap:round; stroke-linejoin:round; stroke-width:2; stroke-opacity:0.1; fill:none" points="1123.4,1423.18 1123.4,47.2441 "/>
<polyline clip-path="url(#clip142)" style="stroke:#000000; stroke-linecap:round; stroke-linejoin:round; stroke-width:2; stroke-opacity:0.1; fill:none" points="1531.04,1423.18 1531.04,47.2441 "/>
<polyline clip-path="url(#clip142)" style="stroke:#000000; stroke-linecap:round; stroke-linejoin:round; stroke-width:2; stroke-opacity:0.1; fill:none" points="1938.68,1423.18 1938.68,47.2441 "/>
<polyline clip-path="url(#clip142)" style="stroke:#000000; stroke-linecap:round; stroke-linejoin:round; stroke-width:2; stroke-opacity:0.1; fill:none" points="2346.32,1423.18 2346.32,47.2441 "/>
<polyline clip-path="url(#clip142)" style="stroke:#000000; stroke-linecap:round; stroke-linejoin:round; stroke-width:2; stroke-opacity:0.1; fill:none" points="252.764,1249.91 2352.76,1249.91 "/>
<polyline clip-path="url(#clip142)" style="stroke:#000000; stroke-linecap:round; stroke-linejoin:round; stroke-width:2; stroke-opacity:0.1; fill:none" points="252.764,778.49 2352.76,778.49 "/>
<polyline clip-path="url(#clip142)" style="stroke:#000000; stroke-linecap:round; stroke-linejoin:round; stroke-width:2; stroke-opacity:0.1; fill:none" points="252.764,307.065 2352.76,307.065 "/>
<polyline clip-path="url(#clip140)" style="stroke:#000000; stroke-linecap:round; stroke-linejoin:round; stroke-width:4; stroke-opacity:1; fill:none" points="252.764,1423.18 2352.76,1423.18 "/>
<polyline clip-path="url(#clip140)" style="stroke:#000000; stroke-linecap:round; stroke-linejoin:round; stroke-width:4; stroke-opacity:1; fill:none" points="308.121,1423.18 308.121,1404.28 "/>
<polyline clip-path="url(#clip140)" style="stroke:#000000; stroke-linecap:round; stroke-linejoin:round; stroke-width:4; stroke-opacity:1; fill:none" points="715.76,1423.18 715.76,1404.28 "/>
<polyline clip-path="url(#clip140)" style="stroke:#000000; stroke-linecap:round; stroke-linejoin:round; stroke-width:4; stroke-opacity:1; fill:none" points="1123.4,1423.18 1123.4,1404.28 "/>
<polyline clip-path="url(#clip140)" style="stroke:#000000; stroke-linecap:round; stroke-linejoin:round; stroke-width:4; stroke-opacity:1; fill:none" points="1531.04,1423.18 1531.04,1404.28 "/>
<polyline clip-path="url(#clip140)" style="stroke:#000000; stroke-linecap:round; stroke-linejoin:round; stroke-width:4; stroke-opacity:1; fill:none" points="1938.68,1423.18 1938.68,1404.28 "/>
<polyline clip-path="url(#clip140)" style="stroke:#000000; stroke-linecap:round; stroke-linejoin:round; stroke-width:4; stroke-opacity:1; fill:none" points="2346.32,1423.18 2346.32,1404.28 "/>
<path clip-path="url(#clip140)" d="M308.121 1454.1 Q304.51 1454.1 302.682 1457.66 Q300.876 1461.2 300.876 1468.33 Q300.876 1475.44 302.682 1479.01 Q304.51 1482.55 308.121 1482.55 Q311.756 1482.55 313.561 1479.01 Q315.39 1475.44 315.39 1468.33 Q315.39 1461.2 313.561 1457.66 Q311.756 1454.1 308.121 1454.1 M308.121 1450.39 Q313.931 1450.39 316.987 1455 Q320.066 1459.58 320.066 1468.33 Q320.066 1477.06 316.987 1481.67 Q313.931 1486.25 308.121 1486.25 Q302.311 1486.25 299.232 1481.67 Q296.177 1477.06 296.177 1468.33 Q296.177 1459.58 299.232 1455 Q302.311 1450.39 308.121 1450.39 Z" fill="#000000" fill-rule="nonzero" fill-opacity="1" /><path clip-path="url(#clip140)" d="M675.367 1481.64 L683.006 1481.64 L683.006 1455.28 L674.695 1456.95 L674.695 1452.69 L682.959 1451.02 L687.635 1451.02 L687.635 1481.64 L695.274 1481.64 L695.274 1485.58 L675.367 1485.58 L675.367 1481.64 Z" fill="#000000" fill-rule="nonzero" fill-opacity="1" /><path clip-path="url(#clip140)" d="M714.718 1454.1 Q711.107 1454.1 709.279 1457.66 Q707.473 1461.2 707.473 1468.33 Q707.473 1475.44 709.279 1479.01 Q711.107 1482.55 714.718 1482.55 Q718.353 1482.55 720.158 1479.01 Q721.987 1475.44 721.987 1468.33 Q721.987 1461.2 720.158 1457.66 Q718.353 1454.1 714.718 1454.1 M714.718 1450.39 Q720.529 1450.39 723.584 1455 Q726.663 1459.58 726.663 1468.33 Q726.663 1477.06 723.584 1481.67 Q720.529 1486.25 714.718 1486.25 Q708.908 1486.25 705.83 1481.67 Q702.774 1477.06 702.774 1468.33 Q702.774 1459.58 705.83 1455 Q708.908 1450.39 714.718 1450.39 Z" fill="#000000" fill-rule="nonzero" fill-opacity="1" /><path clip-path="url(#clip140)" d="M744.88 1454.1 Q741.269 1454.1 739.441 1457.66 Q737.635 1461.2 737.635 1468.33 Q737.635 1475.44 739.441 1479.01 Q741.269 1482.55 744.88 1482.55 Q748.515 1482.55 750.32 1479.01 Q752.149 1475.44 752.149 1468.33 Q752.149 1461.2 750.32 1457.66 Q748.515 1454.1 744.88 1454.1 M744.88 1450.39 Q750.69 1450.39 753.746 1455 Q756.825 1459.58 756.825 1468.33 Q756.825 1477.06 753.746 1481.67 Q750.69 1486.25 744.88 1486.25 Q739.07 1486.25 735.991 1481.67 Q732.936 1477.06 732.936 1468.33 Q732.936 1459.58 735.991 1455 Q739.07 1450.39 744.88 1450.39 Z" fill="#000000" fill-rule="nonzero" fill-opacity="1" /><path clip-path="url(#clip140)" d="M1087.09 1481.64 L1103.41 1481.64 L1103.41 1485.58 L1081.47 1485.58 L1081.47 1481.64 Q1084.13 1478.89 1088.71 1474.26 Q1093.32 1469.61 1094.5 1468.27 Q1096.74 1465.74 1097.62 1464.01 Q1098.53 1462.25 1098.53 1460.56 Q1098.53 1457.8 1096.58 1456.07 Q1094.66 1454.33 1091.56 1454.33 Q1089.36 1454.33 1086.91 1455.09 Q1084.48 1455.86 1081.7 1457.41 L1081.7 1452.69 Q1084.52 1451.55 1086.98 1450.97 Q1089.43 1450.39 1091.47 1450.39 Q1096.84 1450.39 1100.03 1453.08 Q1103.23 1455.77 1103.23 1460.26 Q1103.23 1462.39 1102.42 1464.31 Q1101.63 1466.2 1099.52 1468.8 Q1098.94 1469.47 1095.84 1472.69 Q1092.74 1475.88 1087.09 1481.64 Z" fill="#000000" fill-rule="nonzero" fill-opacity="1" /><path clip-path="url(#clip140)" d="M1123.23 1454.1 Q1119.61 1454.1 1117.79 1457.66 Q1115.98 1461.2 1115.98 1468.33 Q1115.98 1475.44 1117.79 1479.01 Q1119.61 1482.55 1123.23 1482.55 Q1126.86 1482.55 1128.67 1479.01 Q1130.49 1475.44 1130.49 1468.33 Q1130.49 1461.2 1128.67 1457.66 Q1126.86 1454.1 1123.23 1454.1 M1123.23 1450.39 Q1129.04 1450.39 1132.09 1455 Q1135.17 1459.58 1135.17 1468.33 Q1135.17 1477.06 1132.09 1481.67 Q1129.04 1486.25 1123.23 1486.25 Q1117.42 1486.25 1114.34 1481.67 Q1111.28 1477.06 1111.28 1468.33 Q1111.28 1459.58 1114.34 1455 Q1117.42 1450.39 1123.23 1450.39 Z" fill="#000000" fill-rule="nonzero" fill-opacity="1" /><path clip-path="url(#clip140)" d="M1153.39 1454.1 Q1149.78 1454.1 1147.95 1457.66 Q1146.14 1461.2 1146.14 1468.33 Q1146.14 1475.44 1147.95 1479.01 Q1149.78 1482.55 1153.39 1482.55 Q1157.02 1482.55 1158.83 1479.01 Q1160.66 1475.44 1160.66 1468.33 Q1160.66 1461.2 1158.83 1457.66 Q1157.02 1454.1 1153.39 1454.1 M1153.39 1450.39 Q1159.2 1450.39 1162.25 1455 Q1165.33 1459.58 1165.33 1468.33 Q1165.33 1477.06 1162.25 1481.67 Q1159.2 1486.25 1153.39 1486.25 Q1147.58 1486.25 1144.5 1481.67 Q1141.44 1477.06 1141.44 1468.33 Q1141.44 1459.58 1144.5 1455 Q1147.58 1450.39 1153.39 1450.39 Z" fill="#000000" fill-rule="nonzero" fill-opacity="1" /><path clip-path="url(#clip140)" d="M1504.8 1466.95 Q1508.16 1467.66 1510.03 1469.93 Q1511.93 1472.2 1511.93 1475.53 Q1511.93 1480.65 1508.41 1483.45 Q1504.89 1486.25 1498.41 1486.25 Q1496.23 1486.25 1493.92 1485.81 Q1491.63 1485.39 1489.17 1484.54 L1489.17 1480.02 Q1491.12 1481.16 1493.43 1481.74 Q1495.75 1482.32 1498.27 1482.32 Q1502.67 1482.32 1504.96 1480.58 Q1507.28 1478.84 1507.28 1475.53 Q1507.28 1472.48 1505.12 1470.77 Q1502.99 1469.03 1499.17 1469.03 L1495.15 1469.03 L1495.15 1465.19 L1499.36 1465.19 Q1502.81 1465.19 1504.64 1463.82 Q1506.47 1462.43 1506.47 1459.84 Q1506.47 1457.18 1504.57 1455.77 Q1502.69 1454.33 1499.17 1454.33 Q1497.25 1454.33 1495.05 1454.75 Q1492.85 1455.16 1490.22 1456.04 L1490.22 1451.88 Q1492.88 1451.14 1495.19 1450.77 Q1497.53 1450.39 1499.59 1450.39 Q1504.92 1450.39 1508.02 1452.83 Q1511.12 1455.23 1511.12 1459.35 Q1511.12 1462.22 1509.48 1464.21 Q1507.83 1466.18 1504.8 1466.95 Z" fill="#000000" fill-rule="nonzero" fill-opacity="1" /><path clip-path="url(#clip140)" d="M1530.79 1454.1 Q1527.18 1454.1 1525.35 1457.66 Q1523.55 1461.2 1523.55 1468.33 Q1523.55 1475.44 1525.35 1479.01 Q1527.18 1482.55 1530.79 1482.55 Q1534.43 1482.55 1536.23 1479.01 Q1538.06 1475.44 1538.06 1468.33 Q1538.06 1461.2 1536.23 1457.66 Q1534.43 1454.1 1530.79 1454.1 M1530.79 1450.39 Q1536.6 1450.39 1539.66 1455 Q1542.74 1459.58 1542.74 1468.33 Q1542.74 1477.06 1539.66 1481.67 Q1536.6 1486.25 1530.79 1486.25 Q1524.98 1486.25 1521.91 1481.67 Q1518.85 1477.06 1518.85 1468.33 Q1518.85 1459.58 1521.91 1455 Q1524.98 1450.39 1530.79 1450.39 Z" fill="#000000" fill-rule="nonzero" fill-opacity="1" /><path clip-path="url(#clip140)" d="M1560.96 1454.1 Q1557.35 1454.1 1555.52 1457.66 Q1553.71 1461.2 1553.71 1468.33 Q1553.71 1475.44 1555.52 1479.01 Q1557.35 1482.55 1560.96 1482.55 Q1564.59 1482.55 1566.4 1479.01 Q1568.22 1475.44 1568.22 1468.33 Q1568.22 1461.2 1566.4 1457.66 Q1564.59 1454.1 1560.96 1454.1 M1560.96 1450.39 Q1566.77 1450.39 1569.82 1455 Q1572.9 1459.58 1572.9 1468.33 Q1572.9 1477.06 1569.82 1481.67 Q1566.77 1486.25 1560.96 1486.25 Q1555.15 1486.25 1552.07 1481.67 Q1549.01 1477.06 1549.01 1468.33 Q1549.01 1459.58 1552.07 1455 Q1555.15 1450.39 1560.96 1450.39 Z" fill="#000000" fill-rule="nonzero" fill-opacity="1" /><path clip-path="url(#clip140)" d="M1911.77 1455.09 L1899.96 1473.54 L1911.77 1473.54 L1911.77 1455.09 M1910.54 1451.02 L1916.42 1451.02 L1916.42 1473.54 L1921.35 1473.54 L1921.35 1477.43 L1916.42 1477.43 L1916.42 1485.58 L1911.77 1485.58 L1911.77 1477.43 L1896.17 1477.43 L1896.17 1472.92 L1910.54 1451.02 Z" fill="#000000" fill-rule="nonzero" fill-opacity="1" /><path clip-path="url(#clip140)" d="M1939.08 1454.1 Q1935.47 1454.1 1933.64 1457.66 Q1931.84 1461.2 1931.84 1468.33 Q1931.84 1475.44 1933.64 1479.01 Q1935.47 1482.55 1939.08 1482.55 Q1942.72 1482.55 1944.52 1479.01 Q1946.35 1475.44 1946.35 1468.33 Q1946.35 1461.2 1944.52 1457.66 Q1942.72 1454.1 1939.08 1454.1 M1939.08 1450.39 Q1944.89 1450.39 1947.95 1455 Q1951.03 1459.58 1951.03 1468.33 Q1951.03 1477.06 1947.95 1481.67 Q1944.89 1486.25 1939.08 1486.25 Q1933.27 1486.25 1930.19 1481.67 Q1927.14 1477.06 1927.14 1468.33 Q1927.14 1459.58 1930.19 1455 Q1933.27 1450.39 1939.08 1450.39 Z" fill="#000000" fill-rule="nonzero" fill-opacity="1" /><path clip-path="url(#clip140)" d="M1969.24 1454.1 Q1965.63 1454.1 1963.8 1457.66 Q1962 1461.2 1962 1468.33 Q1962 1475.44 1963.8 1479.01 Q1965.63 1482.55 1969.24 1482.55 Q1972.88 1482.55 1974.68 1479.01 Q1976.51 1475.44 1976.51 1468.33 Q1976.51 1461.2 1974.68 1457.66 Q1972.88 1454.1 1969.24 1454.1 M1969.24 1450.39 Q1975.05 1450.39 1978.11 1455 Q1981.19 1459.58 1981.19 1468.33 Q1981.19 1477.06 1978.11 1481.67 Q1975.05 1486.25 1969.24 1486.25 Q1963.43 1486.25 1960.35 1481.67 Q1957.3 1477.06 1957.3 1468.33 Q1957.3 1459.58 1960.35 1455 Q1963.43 1450.39 1969.24 1450.39 Z" fill="#000000" fill-rule="nonzero" fill-opacity="1" /><path clip-path="url(#clip140)" d="M2305.93 1451.02 L2324.29 1451.02 L2324.29 1454.96 L2310.22 1454.96 L2310.22 1463.43 Q2311.23 1463.08 2312.25 1462.92 Q2313.27 1462.73 2314.29 1462.73 Q2320.08 1462.73 2323.46 1465.9 Q2326.84 1469.08 2326.84 1474.49 Q2326.84 1480.07 2323.36 1483.17 Q2319.89 1486.25 2313.57 1486.25 Q2311.4 1486.25 2309.13 1485.88 Q2306.88 1485.51 2304.48 1484.77 L2304.48 1480.07 Q2306.56 1481.2 2308.78 1481.76 Q2311 1482.32 2313.48 1482.32 Q2317.48 1482.32 2319.82 1480.21 Q2322.16 1478.1 2322.16 1474.49 Q2322.16 1470.88 2319.82 1468.77 Q2317.48 1466.67 2313.48 1466.67 Q2311.6 1466.67 2309.73 1467.08 Q2307.88 1467.5 2305.93 1468.38 L2305.93 1451.02 Z" fill="#000000" fill-rule="nonzero" fill-opacity="1" /><path clip-path="url(#clip140)" d="M2346.05 1454.1 Q2342.44 1454.1 2340.61 1457.66 Q2338.8 1461.2 2338.8 1468.33 Q2338.8 1475.44 2340.61 1479.01 Q2342.44 1482.55 2346.05 1482.55 Q2349.68 1482.55 2351.49 1479.01 Q2353.32 1475.44 2353.32 1468.33 Q2353.32 1461.2 2351.49 1457.66 Q2349.68 1454.1 2346.05 1454.1 M2346.05 1450.39 Q2351.86 1450.39 2354.91 1455 Q2357.99 1459.58 2357.99 1468.33 Q2357.99 1477.06 2354.91 1481.67 Q2351.86 1486.25 2346.05 1486.25 Q2340.24 1486.25 2337.16 1481.67 Q2334.1 1477.06 2334.1 1468.33 Q2334.1 1459.58 2337.16 1455 Q2340.24 1450.39 2346.05 1450.39 Z" fill="#000000" fill-rule="nonzero" fill-opacity="1" /><path clip-path="url(#clip140)" d="M2376.21 1454.1 Q2372.6 1454.1 2370.77 1457.66 Q2368.97 1461.2 2368.97 1468.33 Q2368.97 1475.44 2370.77 1479.01 Q2372.6 1482.55 2376.21 1482.55 Q2379.85 1482.55 2381.65 1479.01 Q2383.48 1475.44 2383.48 1468.33 Q2383.48 1461.2 2381.65 1457.66 Q2379.85 1454.1 2376.21 1454.1 M2376.21 1450.39 Q2382.02 1450.39 2385.08 1455 Q2388.16 1459.58 2388.16 1468.33 Q2388.16 1477.06 2385.08 1481.67 Q2382.02 1486.25 2376.21 1486.25 Q2370.4 1486.25 2367.32 1481.67 Q2364.27 1477.06 2364.27 1468.33 Q2364.27 1459.58 2367.32 1455 Q2370.4 1450.39 2376.21 1450.39 Z" fill="#000000" fill-rule="nonzero" fill-opacity="1" /><path clip-path="url(#clip140)" d="M1208.93 1520.52 L1238.98 1520.52 L1238.98 1525.93 L1215.36 1525.93 L1215.36 1540 L1237.99 1540 L1237.99 1545.41 L1215.36 1545.41 L1215.36 1562.63 L1239.55 1562.63 L1239.55 1568.04 L1208.93 1568.04 L1208.93 1520.52 Z" fill="#000000" fill-rule="nonzero" fill-opacity="1" /><path clip-path="url(#clip140)" d="M1255.53 1562.7 L1255.53 1581.6 L1249.64 1581.6 L1249.64 1532.4 L1255.53 1532.4 L1255.53 1537.81 Q1257.37 1534.62 1260.17 1533.1 Q1263.01 1531.54 1266.92 1531.54 Q1273.41 1531.54 1277.46 1536.69 Q1281.53 1541.85 1281.53 1550.25 Q1281.53 1558.65 1277.46 1563.81 Q1273.41 1568.97 1266.92 1568.97 Q1263.01 1568.97 1260.17 1567.44 Q1257.37 1565.88 1255.53 1562.7 M1275.45 1550.25 Q1275.45 1543.79 1272.78 1540.13 Q1270.14 1536.44 1265.49 1536.44 Q1260.84 1536.44 1258.17 1540.13 Q1255.53 1543.79 1255.53 1550.25 Q1255.53 1556.71 1258.17 1560.4 Q1260.84 1564.07 1265.49 1564.07 Q1270.14 1564.07 1272.78 1560.4 Q1275.45 1556.71 1275.45 1550.25 Z" fill="#000000" fill-rule="nonzero" fill-opacity="1" /><path clip-path="url(#clip140)" d="M1305.05 1536.5 Q1300.34 1536.5 1297.6 1540.19 Q1294.87 1543.85 1294.87 1550.25 Q1294.87 1556.65 1297.57 1560.34 Q1300.31 1564 1305.05 1564 Q1309.73 1564 1312.47 1560.31 Q1315.2 1556.62 1315.2 1550.25 Q1315.2 1543.92 1312.47 1540.23 Q1309.73 1536.5 1305.05 1536.5 M1305.05 1531.54 Q1312.69 1531.54 1317.05 1536.5 Q1321.41 1541.47 1321.41 1550.25 Q1321.41 1559 1317.05 1564 Q1312.69 1568.97 1305.05 1568.97 Q1297.38 1568.97 1293.02 1564 Q1288.69 1559 1288.69 1550.25 Q1288.69 1541.47 1293.02 1536.5 Q1297.38 1531.54 1305.05 1531.54 Z" fill="#000000" fill-rule="nonzero" fill-opacity="1" /><path clip-path="url(#clip140)" d="M1356.77 1533.76 L1356.77 1539.24 Q1354.29 1537.87 1351.78 1537.2 Q1349.29 1536.5 1346.75 1536.5 Q1341.05 1536.5 1337.9 1540.13 Q1334.75 1543.73 1334.75 1550.25 Q1334.75 1556.78 1337.9 1560.4 Q1341.05 1564 1346.75 1564 Q1349.29 1564 1351.78 1563.33 Q1354.29 1562.63 1356.77 1561.26 L1356.77 1566.68 Q1354.32 1567.82 1351.68 1568.39 Q1349.07 1568.97 1346.11 1568.97 Q1338.06 1568.97 1333.32 1563.91 Q1328.57 1558.85 1328.57 1550.25 Q1328.57 1541.53 1333.35 1536.53 Q1338.15 1531.54 1346.49 1531.54 Q1349.2 1531.54 1351.78 1532.11 Q1354.35 1532.65 1356.77 1533.76 Z" fill="#000000" fill-rule="nonzero" fill-opacity="1" /><path clip-path="url(#clip140)" d="M1396.59 1546.53 L1396.59 1568.04 L1390.73 1568.04 L1390.73 1546.72 Q1390.73 1541.66 1388.76 1539.14 Q1386.79 1536.63 1382.84 1536.63 Q1378.1 1536.63 1375.36 1539.65 Q1372.62 1542.68 1372.62 1547.9 L1372.62 1568.04 L1366.74 1568.04 L1366.74 1518.52 L1372.62 1518.52 L1372.62 1537.93 Q1374.72 1534.72 1377.56 1533.13 Q1380.42 1531.54 1384.15 1531.54 Q1390.29 1531.54 1393.44 1535.36 Q1396.59 1539.14 1396.59 1546.53 Z" fill="#000000" fill-rule="nonzero" fill-opacity="1" /><polyline clip-path="url(#clip140)" style="stroke:#000000; stroke-linecap:round; stroke-linejoin:round; stroke-width:4; stroke-opacity:1; fill:none" points="252.764,1423.18 252.764,47.2441 "/>
<polyline clip-path="url(#clip140)" style="stroke:#000000; stroke-linecap:round; stroke-linejoin:round; stroke-width:4; stroke-opacity:1; fill:none" points="252.764,1249.91 271.662,1249.91 "/>
<polyline clip-path="url(#clip140)" style="stroke:#000000; stroke-linecap:round; stroke-linejoin:round; stroke-width:4; stroke-opacity:1; fill:none" points="252.764,778.49 271.662,778.49 "/>
<polyline clip-path="url(#clip140)" style="stroke:#000000; stroke-linecap:round; stroke-linejoin:round; stroke-width:4; stroke-opacity:1; fill:none" points="252.764,307.065 271.662,307.065 "/>
<path clip-path="url(#clip140)" d="M114.931 1269.71 L122.57 1269.71 L122.57 1243.34 L114.26 1245.01 L114.26 1240.75 L122.524 1239.08 L127.2 1239.08 L127.2 1269.71 L134.839 1269.71 L134.839 1273.64 L114.931 1273.64 L114.931 1269.71 Z" fill="#000000" fill-rule="nonzero" fill-opacity="1" /><path clip-path="url(#clip140)" d="M154.283 1242.16 Q150.672 1242.16 148.843 1245.73 Q147.038 1249.27 147.038 1256.4 Q147.038 1263.5 148.843 1267.07 Q150.672 1270.61 154.283 1270.61 Q157.917 1270.61 159.723 1267.07 Q161.552 1263.5 161.552 1256.4 Q161.552 1249.27 159.723 1245.73 Q157.917 1242.16 154.283 1242.16 M154.283 1238.46 Q160.093 1238.46 163.149 1243.06 Q166.227 1247.65 166.227 1256.4 Q166.227 1265.12 163.149 1269.73 Q160.093 1274.31 154.283 1274.31 Q148.473 1274.31 145.394 1269.73 Q142.339 1265.12 142.339 1256.4 Q142.339 1247.65 145.394 1243.06 Q148.473 1238.46 154.283 1238.46 Z" fill="#000000" fill-rule="nonzero" fill-opacity="1" /><path clip-path="url(#clip140)" d="M166.227 1232.56 L190.339 1232.56 L190.339 1235.76 L166.227 1235.76 L166.227 1232.56 Z" fill="#000000" fill-rule="nonzero" fill-opacity="1" /><path clip-path="url(#clip140)" d="M208.978 1221.46 L199.386 1236.45 L208.978 1236.45 L208.978 1221.46 M207.981 1218.15 L212.758 1218.15 L212.758 1236.45 L216.764 1236.45 L216.764 1239.61 L212.758 1239.61 L212.758 1246.23 L208.978 1246.23 L208.978 1239.61 L196.301 1239.61 L196.301 1235.94 L207.981 1218.15 Z" fill="#000000" fill-rule="nonzero" fill-opacity="1" /><path clip-path="url(#clip140)" d="M115.853 798.282 L123.492 798.282 L123.492 771.917 L115.182 773.583 L115.182 769.324 L123.446 767.657 L128.121 767.657 L128.121 798.282 L135.76 798.282 L135.76 802.217 L115.853 802.217 L115.853 798.282 Z" fill="#000000" fill-rule="nonzero" fill-opacity="1" /><path clip-path="url(#clip140)" d="M155.205 770.736 Q151.594 770.736 149.765 774.301 Q147.959 777.842 147.959 784.972 Q147.959 792.079 149.765 795.643 Q151.594 799.185 155.205 799.185 Q158.839 799.185 160.644 795.643 Q162.473 792.079 162.473 784.972 Q162.473 777.842 160.644 774.301 Q158.839 770.736 155.205 770.736 M155.205 767.032 Q161.015 767.032 164.07 771.639 Q167.149 776.222 167.149 784.972 Q167.149 793.699 164.07 798.305 Q161.015 802.889 155.205 802.889 Q149.395 802.889 146.316 798.305 Q143.26 793.699 143.26 784.972 Q143.26 776.222 146.316 771.639 Q149.395 767.032 155.205 767.032 Z" fill="#000000" fill-rule="nonzero" fill-opacity="1" /><path clip-path="url(#clip140)" d="M167.149 761.134 L191.261 761.134 L191.261 764.331 L167.149 764.331 L167.149 761.134 Z" fill="#000000" fill-rule="nonzero" fill-opacity="1" /><path clip-path="url(#clip140)" d="M210.971 759.667 Q213.698 760.25 215.222 762.093 Q216.764 763.936 216.764 766.644 Q216.764 770.801 213.905 773.077 Q211.046 775.352 205.78 775.352 Q204.012 775.352 202.132 774.995 Q200.27 774.656 198.276 773.961 L198.276 770.293 Q199.856 771.215 201.737 771.685 Q203.617 772.155 205.667 772.155 Q209.241 772.155 211.103 770.744 Q212.984 769.334 212.984 766.644 Q212.984 764.162 211.234 762.77 Q209.504 761.359 206.401 761.359 L203.128 761.359 L203.128 758.237 L206.551 758.237 Q209.354 758.237 210.84 757.128 Q212.325 755.999 212.325 753.893 Q212.325 751.73 210.783 750.583 Q209.26 749.416 206.401 749.416 Q204.84 749.416 203.053 749.755 Q201.266 750.094 199.122 750.808 L199.122 747.423 Q201.285 746.821 203.166 746.52 Q205.066 746.219 206.739 746.219 Q211.065 746.219 213.585 748.194 Q216.106 750.15 216.106 753.498 Q216.106 755.83 214.77 757.447 Q213.435 759.046 210.971 759.667 Z" fill="#000000" fill-rule="nonzero" fill-opacity="1" /><path clip-path="url(#clip140)" d="M116.624 326.858 L124.263 326.858 L124.263 300.492 L115.953 302.159 L115.953 297.899 L124.217 296.233 L128.893 296.233 L128.893 326.858 L136.531 326.858 L136.531 330.793 L116.624 330.793 L116.624 326.858 Z" fill="#000000" fill-rule="nonzero" fill-opacity="1" /><path clip-path="url(#clip140)" d="M155.976 299.311 Q152.365 299.311 150.536 302.876 Q148.73 306.418 148.73 313.547 Q148.73 320.654 150.536 324.219 Q152.365 327.76 155.976 327.76 Q159.61 327.76 161.416 324.219 Q163.244 320.654 163.244 313.547 Q163.244 306.418 161.416 302.876 Q159.61 299.311 155.976 299.311 M155.976 295.608 Q161.786 295.608 164.841 300.214 Q167.92 304.798 167.92 313.547 Q167.92 322.274 164.841 326.881 Q161.786 331.464 155.976 331.464 Q150.166 331.464 147.087 326.881 Q144.031 322.274 144.031 313.547 Q144.031 304.798 147.087 300.214 Q150.166 295.608 155.976 295.608 Z" fill="#000000" fill-rule="nonzero" fill-opacity="1" /><path clip-path="url(#clip140)" d="M167.92 289.709 L192.032 289.709 L192.032 292.906 L167.92 292.906 L167.92 289.709 Z" fill="#000000" fill-rule="nonzero" fill-opacity="1" /><path clip-path="url(#clip140)" d="M203.504 300.185 L216.764 300.185 L216.764 303.382 L198.934 303.382 L198.934 300.185 Q201.097 297.947 204.821 294.185 Q208.564 290.405 209.523 289.314 Q211.347 287.264 212.062 285.853 Q212.796 284.424 212.796 283.051 Q212.796 280.813 211.216 279.402 Q209.655 277.992 207.134 277.992 Q205.348 277.992 203.354 278.613 Q201.379 279.233 199.122 280.493 L199.122 276.656 Q201.417 275.735 203.41 275.265 Q205.404 274.795 207.059 274.795 Q211.423 274.795 214.018 276.976 Q216.613 279.158 216.613 282.807 Q216.613 284.537 215.955 286.098 Q215.316 287.64 213.604 289.747 Q213.134 290.292 210.614 292.906 Q208.094 295.502 203.504 300.185 Z" fill="#000000" fill-rule="nonzero" fill-opacity="1" /><path clip-path="url(#clip140)" d="M22.818 1007.04 L46.4666 1015.76 L46.4666 998.291 L22.818 1007.04 M16.4842 1010.67 L16.4842 1003.38 L64.0042 985.273 L64.0042 991.957 L51.8138 996.286 L51.8138 1017.71 L64.0042 1022.03 L64.0042 1028.81 L16.4842 1010.67 Z" fill="#000000" fill-rule="nonzero" fill-opacity="1" /><path clip-path="url(#clip140)" d="M28.3562 986.61 L28.3562 980.403 L58.275 969.263 L28.3562 958.123 L28.3562 951.917 L64.0042 965.285 L64.0042 973.242 L28.3562 986.61 Z" fill="#000000" fill-rule="nonzero" fill-opacity="1" /><path clip-path="url(#clip140)" d="M44.7161 913.34 L47.5806 913.34 L47.5806 940.267 Q53.6281 939.885 56.8109 936.639 Q59.9619 933.361 59.9619 927.536 Q59.9619 924.162 59.1344 921.011 Q58.3069 917.828 56.6518 914.709 L62.1899 914.709 Q63.5267 917.86 64.227 921.17 Q64.9272 924.48 64.9272 927.886 Q64.9272 936.416 59.9619 941.413 Q54.9967 946.378 46.5303 946.378 Q37.7774 946.378 32.6531 941.668 Q27.4968 936.925 27.4968 928.905 Q27.4968 921.711 32.1438 917.542 Q36.7589 913.34 44.7161 913.34 M42.9973 919.197 Q38.1912 919.26 35.3266 921.902 Q32.4621 924.512 32.4621 928.841 Q32.4621 933.742 35.2312 936.702 Q38.0002 939.631 43.0292 940.076 L42.9973 919.197 Z" fill="#000000" fill-rule="nonzero" fill-opacity="1" /><path clip-path="url(#clip140)" d="M33.8307 883.071 Q33.2578 884.058 33.0032 885.236 Q32.7167 886.382 32.7167 887.782 Q32.7167 892.747 35.9632 895.421 Q39.1779 898.063 45.2253 898.063 L64.0042 898.063 L64.0042 903.951 L28.3562 903.951 L28.3562 898.063 L33.8944 898.063 Q30.6479 896.217 29.0883 893.257 Q27.4968 890.296 27.4968 886.063 Q27.4968 885.459 27.5923 884.727 Q27.656 883.994 27.8151 883.103 L33.8307 883.071 Z" fill="#000000" fill-rule="nonzero" fill-opacity="1" /><path clip-path="url(#clip140)" d="M46.0847 860.728 Q46.0847 867.826 47.7079 870.563 Q49.3312 873.3 53.2461 873.3 Q56.3653 873.3 58.2114 871.263 Q60.0256 869.194 60.0256 865.661 Q60.0256 860.791 56.5881 857.863 Q53.1188 854.903 47.3897 854.903 L46.0847 854.903 L46.0847 860.728 M43.6657 849.047 L64.0042 849.047 L64.0042 854.903 L58.5933 854.903 Q61.8398 856.908 63.3994 859.9 Q64.9272 862.892 64.9272 867.221 Q64.9272 872.695 61.8716 875.942 Q58.7843 879.157 53.6281 879.157 Q47.6125 879.157 44.5569 875.146 Q41.5014 871.104 41.5014 863.115 L41.5014 854.903 L40.9285 854.903 Q36.8862 854.903 34.6901 857.577 Q32.4621 860.219 32.4621 865.025 Q32.4621 868.08 33.1941 870.977 Q33.9262 873.873 35.3903 876.547 L29.9795 876.547 Q28.7381 873.332 28.1334 870.308 Q27.4968 867.284 27.4968 864.42 Q27.4968 856.686 31.5072 852.866 Q35.5176 849.047 43.6657 849.047 Z" fill="#000000" fill-rule="nonzero" fill-opacity="1" /><path clip-path="url(#clip140)" d="M45.7664 813.526 Q39.4007 813.526 35.8996 816.168 Q32.3984 818.778 32.3984 823.52 Q32.3984 828.231 35.8996 830.873 Q39.4007 833.483 45.7664 833.483 Q52.1003 833.483 55.6014 830.873 Q59.1026 828.231 59.1026 823.52 Q59.1026 818.778 55.6014 816.168 Q52.1003 813.526 45.7664 813.526 M59.58 807.67 Q68.683 807.67 73.1071 811.712 Q77.5631 815.754 77.5631 824.093 Q77.5631 827.181 77.0857 829.918 Q76.6401 832.655 75.6852 835.233 L69.9879 835.233 Q71.3884 832.655 72.0568 830.141 Q72.7252 827.626 72.7252 825.016 Q72.7252 819.255 69.7015 816.391 Q66.7096 813.526 60.6303 813.526 L57.7339 813.526 Q60.885 815.34 62.4446 818.173 Q64.0042 821.006 64.0042 824.953 Q64.0042 831.509 59.0071 835.52 Q54.01 839.53 45.7664 839.53 Q37.491 839.53 32.4939 835.52 Q27.4968 831.509 27.4968 824.953 Q27.4968 821.006 29.0564 818.173 Q30.616 815.34 33.7671 813.526 L28.3562 813.526 L28.3562 807.67 L59.58 807.67 Z" fill="#000000" fill-rule="nonzero" fill-opacity="1" /><path clip-path="url(#clip140)" d="M44.7161 765.115 L47.5806 765.115 L47.5806 792.042 Q53.6281 791.66 56.8109 788.413 Q59.9619 785.135 59.9619 779.31 Q59.9619 775.937 59.1344 772.786 Q58.3069 769.603 56.6518 766.484 L62.1899 766.484 Q63.5267 769.635 64.227 772.945 Q64.9272 776.255 64.9272 779.661 Q64.9272 788.191 59.9619 793.188 Q54.9967 798.153 46.5303 798.153 Q37.7774 798.153 32.6531 793.442 Q27.4968 788.7 27.4968 780.679 Q27.4968 773.486 32.1438 769.316 Q36.7589 765.115 44.7161 765.115 M42.9973 770.971 Q38.1912 771.035 35.3266 773.677 Q32.4621 776.287 32.4621 780.615 Q32.4621 785.517 35.2312 788.477 Q38.0002 791.405 43.0292 791.851 L42.9973 770.971 Z" fill="#000000" fill-rule="nonzero" fill-opacity="1" /><path clip-path="url(#clip140)" d="M16.4842 734.528 L16.4842 724.947 L48.8219 712.821 L16.4842 700.63 L16.4842 691.05 L64.0042 691.05 L64.0042 697.32 L22.277 697.32 L54.8694 709.574 L54.8694 716.035 L22.277 728.289 L64.0042 728.289 L64.0042 734.528 L16.4842 734.528 Z" fill="#000000" fill-rule="nonzero" fill-opacity="1" /><path clip-path="url(#clip140)" d="M18.0438 649.8 L24.314 649.8 Q22.5634 653.46 21.704 656.707 Q20.8447 659.953 20.8447 662.977 Q20.8447 668.229 22.8817 671.093 Q24.9187 673.926 28.6745 673.926 Q31.8255 673.926 33.4488 672.048 Q35.0402 670.139 36.0269 664.855 L36.8226 660.972 Q38.1912 653.779 41.6605 650.373 Q45.098 646.936 50.8908 646.936 Q57.7976 646.936 61.3624 651.582 Q64.9272 656.198 64.9272 665.141 Q64.9272 668.515 64.1633 672.335 Q63.3994 676.122 61.9035 680.196 L55.2831 680.196 Q57.4793 676.281 58.5933 672.526 Q59.7073 668.77 59.7073 665.141 Q59.7073 659.635 57.543 656.643 Q55.3786 653.651 51.3682 653.651 Q47.8671 653.651 45.8937 655.816 Q43.9204 657.948 42.9337 662.85 L42.1698 666.765 Q40.7375 673.958 37.682 677.173 Q34.6264 680.387 29.1837 680.387 Q22.8817 680.387 19.2532 675.963 Q15.6248 671.507 15.6248 663.709 Q15.6248 660.367 16.2295 656.898 Q16.8343 653.429 18.0438 649.8 Z" fill="#000000" fill-rule="nonzero" fill-opacity="1" /><path clip-path="url(#clip140)" d="M16.4842 636.91 L16.4842 606.863 L21.895 606.863 L21.895 630.48 L35.9632 630.48 L35.9632 607.85 L41.3741 607.85 L41.3741 630.48 L58.5933 630.48 L58.5933 606.29 L64.0042 606.29 L64.0042 636.91 L16.4842 636.91 Z" fill="#000000" fill-rule="nonzero" fill-opacity="1" /><path clip-path="url(#clip140)" d="M16.4842 575.003 L16.4842 568.574 L58.5933 568.574 L58.5933 545.434 L64.0042 545.434 L64.0042 575.003 L16.4842 575.003 Z" fill="#000000" fill-rule="nonzero" fill-opacity="1" /><path clip-path="url(#clip140)" d="M32.4621 526.274 Q32.4621 530.984 36.1542 533.721 Q39.8145 536.459 46.212 536.459 Q52.6095 536.459 56.3017 533.753 Q59.9619 531.016 59.9619 526.274 Q59.9619 521.595 56.2698 518.858 Q52.5777 516.12 46.212 516.12 Q39.8781 516.12 36.186 518.858 Q32.4621 521.595 32.4621 526.274 M27.4968 526.274 Q27.4968 518.635 32.4621 514.274 Q37.4273 509.914 46.212 509.914 Q54.9649 509.914 59.9619 514.274 Q64.9272 518.635 64.9272 526.274 Q64.9272 533.944 59.9619 538.305 Q54.9649 542.633 46.212 542.633 Q37.4273 542.633 32.4621 538.305 Q27.4968 533.944 27.4968 526.274 Z" fill="#000000" fill-rule="nonzero" fill-opacity="1" /><path clip-path="url(#clip140)" d="M29.4065 477.48 L34.9447 477.48 Q33.6716 479.963 33.035 482.637 Q32.3984 485.31 32.3984 488.175 Q32.3984 492.535 33.7352 494.731 Q35.072 496.896 37.7456 496.896 Q39.7826 496.896 40.9603 495.336 Q42.1061 493.777 43.1565 489.066 L43.6021 487.061 Q44.9389 480.822 47.3897 478.212 Q49.8086 475.571 54.1691 475.571 Q59.1344 475.571 62.0308 479.517 Q64.9272 483.432 64.9272 490.307 Q64.9272 493.172 64.3543 496.291 Q63.8132 499.378 62.6992 502.816 L56.6518 502.816 Q58.3387 499.569 59.198 496.418 Q60.0256 493.267 60.0256 490.18 Q60.0256 486.042 58.6251 483.814 Q57.1929 481.586 54.6147 481.586 Q52.2276 481.586 50.9545 483.21 Q49.6813 484.801 48.5037 490.244 L48.0262 492.281 Q46.8804 497.723 44.5251 500.142 Q42.138 502.561 38.0002 502.561 Q32.9713 502.561 30.2341 498.997 Q27.4968 495.432 27.4968 488.875 Q27.4968 485.629 27.9743 482.764 Q28.4517 479.899 29.4065 477.48 Z" fill="#000000" fill-rule="nonzero" fill-opacity="1" /><path clip-path="url(#clip140)" d="M29.4065 443.519 L34.9447 443.519 Q33.6716 446.002 33.035 448.676 Q32.3984 451.349 32.3984 454.214 Q32.3984 458.574 33.7352 460.77 Q35.072 462.935 37.7456 462.935 Q39.7826 462.935 40.9603 461.375 Q42.1061 459.816 43.1565 455.105 L43.6021 453.1 Q44.9389 446.861 47.3897 444.251 Q49.8086 441.61 54.1691 441.61 Q59.1344 441.61 62.0308 445.556 Q64.9272 449.471 64.9272 456.346 Q64.9272 459.211 64.3543 462.33 Q63.8132 465.417 62.6992 468.855 L56.6518 468.855 Q58.3387 465.608 59.198 462.457 Q60.0256 459.306 60.0256 456.219 Q60.0256 452.081 58.6251 449.853 Q57.1929 447.625 54.6147 447.625 Q52.2276 447.625 50.9545 449.249 Q49.6813 450.84 48.5037 456.283 L48.0262 458.32 Q46.8804 463.762 44.5251 466.181 Q42.138 468.6 38.0002 468.6 Q32.9713 468.6 30.2341 465.035 Q27.4968 461.471 27.4968 454.914 Q27.4968 451.667 27.9743 448.803 Q28.4517 445.938 29.4065 443.519 Z" fill="#000000" fill-rule="nonzero" fill-opacity="1" /><polyline clip-path="url(#clip142)" style="stroke:#009af9; stroke-linecap:round; stroke-linejoin:round; stroke-width:8; stroke-opacity:1; fill:none" points="312.198,86.1857 316.274,343.904 320.35,416.631 324.427,488.781 328.503,526.901 332.58,558.626 336.656,586.927 340.732,593.55 344.809,618.324 348.885,639.564 352.962,668.703 357.038,645.929 361.114,676.733 365.191,695.137 369.267,661.541 373.344,439.527 377.42,635.797 381.496,696.223 385.573,740.655 389.649,754.709 393.725,751.531 397.802,761.093 401.878,766.106 405.955,804.373 410.031,806.399 414.107,799.079 418.184,833.42 422.26,814.948 426.337,817.825 430.413,869.69 434.489,829.014 438.566,829.54 442.642,841.453 446.718,876.11 450.795,840.937 454.871,842.494 458.948,866.974 463.024,871.776 467.1,858.407 471.177,870.493 475.253,906.12 479.33,890.322 483.406,880.066 487.482,899.618 491.559,918.362 495.635,908.11 499.712,926.73 503.788,888.78 507.864,939.735 511.941,950.139 516.017,892.822 520.093,916.812 524.17,945.234 528.246,937.901 532.323,980.083 536.399,935.197 540.475,924.525 544.552,965.304 548.628,963.599 552.705,954.659 556.781,952.108 560.857,941.73 564.934,916.509 569.01,973.498 573.087,976.133 577.163,972.547 581.239,989.643 585.316,992.455 589.392,945.505 593.468,950.554 597.545,1003.46 601.621,991.45 605.698,903.333 609.774,962.149 613.85,997.567 617.927,1004.97 622.003,1029.92 626.08,990.453 630.156,963.493 634.232,974.756 638.309,989.171 642.385,1036.71 646.461,1030.36 650.538,988.325 654.614,974.286 658.691,1031.19 662.767,1026.82 666.843,985.575 670.92,943.249 674.996,991.044 679.073,961.435 683.149,1038.83 687.225,1019.75 691.302,1041.51 695.378,1021.37 699.455,1046.46 703.531,994.975 707.607,1023.45 711.684,1065.08 715.76,1067.4 719.836,1022.29 723.913,1082.44 727.989,1043.65 732.066,1055.62 736.142,1019.57 740.218,1048.66 744.295,1064.76 748.371,1030.82 752.448,984.707 756.524,982.3 760.6,1058.68 764.677,1008.12 768.753,1009.31 772.83,1096.57 776.906,1050.88 780.982,955.913 785.059,1040.42 789.135,1027.47 793.211,953.639 797.288,1047.24 801.364,1113.27 805.441,1063.96 809.517,1081.25 813.593,1070.16 817.67,1108.15 821.746,1046.65 825.823,1090.84 829.899,1088.34 833.975,1053.97 838.052,1074.99 842.128,1117.84 846.204,1021.53 850.281,1060.49 854.357,1109.02 858.434,1083.18 862.51,1110.84 866.586,1040.41 870.663,1082.25 874.739,1107.3 878.816,1109.16 882.892,1074.64 886.968,1088.84 891.045,1052.02 895.121,1013.22 899.198,1055.8 903.274,1089.16 907.35,1055.69 911.427,1073.25 915.503,1122.92 919.579,1055.27 923.656,1000.97 927.732,1149.31 931.809,1072.27 935.885,1112.64 939.961,1137.23 944.038,1114.08 948.114,1079.9 952.191,1081.14 956.267,1124 960.343,1157.79 964.42,1118.33 968.496,1143.2 972.573,1103.13 976.649,1124.87 980.725,1126.52 984.802,1140.67 988.878,1089 992.954,1143.57 997.031,1083.62 1001.11,1100.56 1005.18,1131.66 1009.26,1058.29 1013.34,1139.41 1017.41,1126.77 1021.49,1116.06 1025.57,1125.88 1029.64,1114.37 1033.72,1106.94 1037.79,1128.41 1041.87,1137.81 1045.95,1138.97 1050.02,1029.42 1054.1,1087.64 1058.18,1160.33 1062.25,1139.89 1066.33,1161.98 1070.41,1128.76 1074.48,1146.03 1078.56,1134.48 1082.63,1097.21 1086.71,1167.08 1090.79,1103.3 1094.86,1098.98 1098.94,1092.83 1103.02,1090.02 1107.09,1126.72 1111.17,1105.76 1115.25,1140.36 1119.32,1142.79 1123.4,1176.22 1127.48,1179.09 1131.55,1161.01 1135.63,1129.63 1139.7,1153.67 1143.78,1175.46 1147.86,1105.71 1151.93,1108.65 1156.01,1136.86 1160.09,1129.18 1164.16,1061.14 1168.24,1179.48 1172.32,1187.59 1176.39,1241.04 1180.47,1097.02 1184.54,1112.11 1188.62,1167.23 1192.7,1182.99 1196.77,1180.51 1200.85,1204.49 1204.93,1192.33 1209,1097.03 1213.08,1118.34 1217.16,1184.87 1221.23,1159.04 1225.31,1204.8 1229.38,1125.12 1233.46,1129.08 1237.54,1106.49 1241.61,1099.65 1245.69,1163.28 1249.77,1166 1253.84,1181.41 1257.92,1186.56 1262,1175.36 1266.07,1188.77 1270.15,1141.12 1274.23,1154.15 1278.3,1135.57 1282.38,1113.43 1286.45,1113.79 1290.53,1191.18 1294.61,1216.16 1298.68,1123.25 1302.76,1110.82 1306.84,1134.43 1310.91,1158.22 1314.99,1173.53 1319.07,1152.26 1323.14,1193.68 1327.22,1160.59 1331.29,1109.91 1335.37,1102.71 1339.45,1110.25 1343.52,1149.82 1347.6,1147.14 1351.68,1117.89 1355.75,1132.15 1359.83,1159.11 1363.91,1123.31 1367.98,1199.48 1372.06,1264.65 1376.13,1124.38 1380.21,1106 1384.29,1190.74 1388.36,1199.59 1392.44,1225.79 1396.52,1232.32 1400.59,1114.88 1404.67,1182.69 1408.75,1236.95 1412.82,1219.11 1416.9,1201.45 1420.98,1197.15 1425.05,1223.57 1429.13,1079.11 1433.2,1144.68 1437.28,1259.98 1441.36,1256.85 1445.43,1169.47 1449.51,1220.77 1453.59,1100.47 1457.66,1215.49 1461.74,1137.58 1465.82,1223.19 1469.89,1228.9 1473.97,1127.75 1478.04,1225.12 1482.12,1285.77 1486.2,1250.83 1490.27,1177.52 1494.35,1181.67 1498.43,1220.82 1502.5,1155.05 1506.58,1180.11 1510.66,1233.57 1514.73,1237.98 1518.81,1115.96 1522.88,1194.74 1526.96,1287.5 1531.04,1194.04 1535.11,1192.15 1539.19,1173.35 1543.27,1175.35 1547.34,1229.42 1551.42,1159.88 1555.5,1227.5 1559.57,1232.88 1563.65,1236.4 1567.73,1216.29 1571.8,1187.73 1575.88,1196.09 1579.95,1205.5 1584.03,1247.49 1588.11,1200.77 1592.18,1122.25 1596.26,1206.99 1600.34,1215.86 1604.41,1215.82 1608.49,1161.93 1612.57,1208.61 1616.64,1257.43 1620.72,1179.73 1624.79,1132.5 1628.87,1232.31 1632.95,1260.38 1637.02,1116.95 1641.1,1229.29 1645.18,1250.15 1649.25,1265.89 1653.33,1179.77 1657.41,1270.48 1661.48,1267.6 1665.56,1178.02 1669.63,1232.79 1673.71,1287.52 1677.79,1294.81 1681.86,1285.43 1685.94,1271.42 1690.02,1243.28 1694.09,1175.58 1698.17,1222.11 1702.25,1213.81 1706.32,1276.59 1710.4,1142.78 1714.48,1276.14 1718.55,1231.9 1722.63,1202.86 1726.7,1162.03 1730.78,1241 1734.86,1175.12 1738.93,1227.12 1743.01,1205.55 1747.09,1280.8 1751.16,1193.92 1755.24,1139.68 1759.32,1154.65 1763.39,1257.28 1767.47,1230.13 1771.54,1254.93 1775.62,1223.11 1779.7,1262.68 1783.77,1237.35 1787.85,1266.35 1791.93,1203.73 1796,1210.32 1800.08,1249.2 1804.16,1258.27 1808.23,1246.93 1812.31,1258.1 1816.38,1242.87 1820.46,1272.24 1824.54,1254.83 1828.61,1238.39 1832.69,1316.54 1836.77,1321.51 1840.84,1191.77 1844.92,1217.88 1849,1287.95 1853.07,1331.18 1857.15,1284.39 1861.23,1233.61 1865.3,1277.63 1869.38,1308.69 1873.45,1327.34 1877.53,1309 1881.61,1188.68 1885.68,1229.98 1889.76,1241.82 1893.84,1204.64 1897.91,1240.18 1901.99,1300.65 1906.07,1319.78 1910.14,1318.66 1914.22,1291.56 1918.29,1294.85 1922.37,1112.11 1926.45,1173.12 1930.52,1184.1 1934.6,1208.7 1938.68,1272.09 1942.75,1283.57 1946.83,1222.38 1950.91,1299.17 1954.98,1312.66 1959.06,1208.82 1963.13,1128.92 1967.21,1174.3 1971.29,1191.34 1975.36,1197.57 1979.44,1218.79 1983.52,1241.78 1987.59,1269.21 1991.67,1302.37 1995.75,1225.89 1999.82,1263.61 2003.9,1128.29 2007.98,1210.92 2012.05,1174.91 2016.13,1198.32 2020.2,1249.56 2024.28,1260.31 2028.36,1320.65 2032.43,1254.98 2036.51,1287.59 2040.59,1348.91 2044.66,1248.34 2048.74,1248.73 2052.82,1275.04 2056.89,1296.84 2060.97,1304.63 2065.04,1269.68 2069.12,1335.34 2073.2,1384.19 2077.27,1256.03 2081.35,1284.4 2085.43,1320.1 2089.5,1242.78 2093.58,1269.89 2097.66,1292.04 2101.73,1303.92 2105.81,1317.59 2109.88,1319.56 2113.96,1182.34 2118.04,1182.36 2122.11,1261.4 2126.19,1229.02 2130.27,1193.37 2134.34,1213.87 2138.42,1278.81 2142.5,1226.55 2146.57,1217.81 2150.65,1152.01 2154.72,1285.22 2158.8,1344.89 2162.88,1245 2166.95,1283.61 2171.03,1333.68 2175.11,1333.43 2179.18,1246.7 2183.26,1295.37 2187.34,1356.23 2191.41,1260.06 2195.49,1355.62 2199.57,1321.96 2203.64,1297.56 2207.72,1330.53 2211.79,1284.67 2215.87,1263.01 2219.95,1175.89 2224.02,1175.56 2228.1,1285.05 2232.18,1307.71 2236.25,1248.46 2240.33,1207.16 2244.41,1215.3 2248.48,1308.1 2252.56,1358.96 2256.63,1247.42 2260.71,1346.99 2264.79,1282.15 2268.86,1178.04 2272.94,1185.94 2277.02,1323.48 2281.09,1355.62 2285.17,1238.57 2289.25,1333.64 2293.32,1384.24 "/>
<path clip-path="url(#clip140)" d="M1768.82 196.789 L2282.76 196.789 L2282.76 93.1086 L1768.82 93.1086  Z" fill="#ffffff" fill-rule="evenodd" fill-opacity="1"/>
<polyline clip-path="url(#clip140)" style="stroke:#000000; stroke-linecap:round; stroke-linejoin:round; stroke-width:4; stroke-opacity:1; fill:none" points="1768.82,196.789 2282.76,196.789 2282.76,93.1086 1768.82,93.1086 1768.82,196.789 "/>
<polyline clip-path="url(#clip140)" style="stroke:#009af9; stroke-linecap:round; stroke-linejoin:round; stroke-width:8; stroke-opacity:1; fill:none" points="1792.16,144.949 1932.16,144.949 "/>
<path clip-path="url(#clip140)" d="M1955.49 127.669 L1984.73 127.669 L1984.73 131.604 L1972.46 131.604 L1972.46 162.229 L1967.76 162.229 L1967.76 131.604 L1955.49 131.604 L1955.49 127.669 Z" fill="#000000" fill-rule="nonzero" fill-opacity="1" /><path clip-path="url(#clip140)" d="M1997.11 140.284 Q1996.39 139.868 1995.54 139.682 Q1994.7 139.474 1993.68 139.474 Q1990.07 139.474 1988.13 141.835 Q1986.21 144.173 1986.21 148.571 L1986.21 162.229 L1981.92 162.229 L1981.92 136.303 L1986.21 136.303 L1986.21 140.331 Q1987.55 137.969 1989.7 136.835 Q1991.85 135.678 1994.93 135.678 Q1995.37 135.678 1995.91 135.747 Q1996.44 135.794 1997.09 135.909 L1997.11 140.284 Z" fill="#000000" fill-rule="nonzero" fill-opacity="1" /><path clip-path="url(#clip140)" d="M2013.36 149.196 Q2008.2 149.196 2006.21 150.377 Q2004.22 151.557 2004.22 154.405 Q2004.22 156.673 2005.7 158.016 Q2007.2 159.335 2009.77 159.335 Q2013.31 159.335 2015.44 156.835 Q2017.6 154.312 2017.6 150.145 L2017.6 149.196 L2013.36 149.196 M2021.85 147.437 L2021.85 162.229 L2017.6 162.229 L2017.6 158.293 Q2016.14 160.655 2013.96 161.789 Q2011.79 162.9 2008.64 162.9 Q2004.66 162.9 2002.29 160.678 Q1999.96 158.432 1999.96 154.682 Q1999.96 150.307 2002.87 148.085 Q2005.81 145.863 2011.62 145.863 L2017.6 145.863 L2017.6 145.446 Q2017.6 142.507 2015.65 140.909 Q2013.73 139.289 2010.23 139.289 Q2008.01 139.289 2005.91 139.821 Q2003.8 140.354 2001.85 141.419 L2001.85 137.483 Q2004.19 136.581 2006.39 136.141 Q2008.59 135.678 2010.67 135.678 Q2016.3 135.678 2019.08 138.594 Q2021.85 141.511 2021.85 147.437 Z" fill="#000000" fill-rule="nonzero" fill-opacity="1" /><path clip-path="url(#clip140)" d="M2030.63 136.303 L2034.89 136.303 L2034.89 162.229 L2030.63 162.229 L2030.63 136.303 M2030.63 126.21 L2034.89 126.21 L2034.89 131.604 L2030.63 131.604 L2030.63 126.21 Z" fill="#000000" fill-rule="nonzero" fill-opacity="1" /><path clip-path="url(#clip140)" d="M2065.35 146.581 L2065.35 162.229 L2061.09 162.229 L2061.09 146.719 Q2061.09 143.039 2059.66 141.21 Q2058.22 139.382 2055.35 139.382 Q2051.9 139.382 2049.91 141.581 Q2047.92 143.78 2047.92 147.576 L2047.92 162.229 L2043.64 162.229 L2043.64 136.303 L2047.92 136.303 L2047.92 140.331 Q2049.45 137.993 2051.51 136.835 Q2053.59 135.678 2056.3 135.678 Q2060.77 135.678 2063.06 138.456 Q2065.35 141.21 2065.35 146.581 Z" fill="#000000" fill-rule="nonzero" fill-opacity="1" /><path clip-path="url(#clip140)" d="M2073.85 136.303 L2078.1 136.303 L2078.1 162.229 L2073.85 162.229 L2073.85 136.303 M2073.85 126.21 L2078.1 126.21 L2078.1 131.604 L2073.85 131.604 L2073.85 126.21 Z" fill="#000000" fill-rule="nonzero" fill-opacity="1" /><path clip-path="url(#clip140)" d="M2108.57 146.581 L2108.57 162.229 L2104.31 162.229 L2104.31 146.719 Q2104.31 143.039 2102.87 141.21 Q2101.44 139.382 2098.57 139.382 Q2095.12 139.382 2093.13 141.581 Q2091.14 143.78 2091.14 147.576 L2091.14 162.229 L2086.85 162.229 L2086.85 136.303 L2091.14 136.303 L2091.14 140.331 Q2092.66 137.993 2094.72 136.835 Q2096.81 135.678 2099.52 135.678 Q2103.98 135.678 2106.28 138.456 Q2108.57 141.21 2108.57 146.581 Z" fill="#000000" fill-rule="nonzero" fill-opacity="1" /><path clip-path="url(#clip140)" d="M2134.12 148.965 Q2134.12 144.335 2132.2 141.789 Q2130.3 139.243 2126.85 139.243 Q2123.43 139.243 2121.51 141.789 Q2119.61 144.335 2119.61 148.965 Q2119.61 153.571 2121.51 156.118 Q2123.43 158.664 2126.85 158.664 Q2130.3 158.664 2132.2 156.118 Q2134.12 153.571 2134.12 148.965 M2138.38 159.011 Q2138.38 165.631 2135.44 168.849 Q2132.5 172.09 2126.44 172.09 Q2124.19 172.09 2122.2 171.742 Q2120.21 171.418 2118.34 170.724 L2118.34 166.58 Q2120.21 167.599 2122.04 168.085 Q2123.87 168.571 2125.77 168.571 Q2129.96 168.571 2132.04 166.372 Q2134.12 164.196 2134.12 159.775 L2134.12 157.668 Q2132.8 159.96 2130.74 161.094 Q2128.68 162.229 2125.81 162.229 Q2121.04 162.229 2118.13 158.594 Q2115.21 154.96 2115.21 148.965 Q2115.21 142.946 2118.13 139.312 Q2121.04 135.678 2125.81 135.678 Q2128.68 135.678 2130.74 136.812 Q2132.8 137.946 2134.12 140.238 L2134.12 136.303 L2138.38 136.303 L2138.38 159.011 Z" fill="#000000" fill-rule="nonzero" fill-opacity="1" /><path clip-path="url(#clip140)" d="M2162.41 127.669 L2167.09 127.669 L2167.09 158.293 L2183.91 158.293 L2183.91 162.229 L2162.41 162.229 L2162.41 127.669 Z" fill="#000000" fill-rule="nonzero" fill-opacity="1" /><path clip-path="url(#clip140)" d="M2197.85 139.289 Q2194.42 139.289 2192.43 141.974 Q2190.44 144.636 2190.44 149.289 Q2190.44 153.942 2192.41 156.627 Q2194.4 159.289 2197.85 159.289 Q2201.25 159.289 2203.24 156.604 Q2205.23 153.918 2205.23 149.289 Q2205.23 144.682 2203.24 141.997 Q2201.25 139.289 2197.85 139.289 M2197.85 135.678 Q2203.4 135.678 2206.58 139.289 Q2209.75 142.9 2209.75 149.289 Q2209.75 155.655 2206.58 159.289 Q2203.4 162.9 2197.85 162.9 Q2192.27 162.9 2189.1 159.289 Q2185.95 155.655 2185.95 149.289 Q2185.95 142.9 2189.1 139.289 Q2192.27 135.678 2197.85 135.678 Z" fill="#000000" fill-rule="nonzero" fill-opacity="1" /><path clip-path="url(#clip140)" d="M2233.34 137.067 L2233.34 141.094 Q2231.53 140.169 2229.59 139.706 Q2227.64 139.243 2225.56 139.243 Q2222.39 139.243 2220.79 140.215 Q2219.21 141.187 2219.21 143.131 Q2219.21 144.613 2220.35 145.469 Q2221.48 146.303 2224.91 147.067 L2226.37 147.391 Q2230.9 148.363 2232.8 150.145 Q2234.72 151.905 2234.72 155.076 Q2234.72 158.687 2231.85 160.793 Q2229.01 162.9 2224.01 162.9 Q2221.92 162.9 2219.65 162.483 Q2217.41 162.09 2214.91 161.28 L2214.91 156.881 Q2217.27 158.108 2219.56 158.733 Q2221.85 159.335 2224.1 159.335 Q2227.11 159.335 2228.73 158.317 Q2230.35 157.275 2230.35 155.4 Q2230.35 153.664 2229.17 152.738 Q2228.01 151.812 2224.05 150.956 L2222.57 150.608 Q2218.61 149.775 2216.85 148.062 Q2215.09 146.326 2215.09 143.317 Q2215.09 139.659 2217.69 137.669 Q2220.28 135.678 2225.05 135.678 Q2227.41 135.678 2229.49 136.025 Q2231.58 136.372 2233.34 137.067 Z" fill="#000000" fill-rule="nonzero" fill-opacity="1" /><path clip-path="url(#clip140)" d="M2258.03 137.067 L2258.03 141.094 Q2256.23 140.169 2254.28 139.706 Q2252.34 139.243 2250.26 139.243 Q2247.09 139.243 2245.49 140.215 Q2243.91 141.187 2243.91 143.131 Q2243.91 144.613 2245.05 145.469 Q2246.18 146.303 2249.61 147.067 L2251.07 147.391 Q2255.6 148.363 2257.5 150.145 Q2259.42 151.905 2259.42 155.076 Q2259.42 158.687 2256.55 160.793 Q2253.71 162.9 2248.71 162.9 Q2246.62 162.9 2244.35 162.483 Q2242.11 162.09 2239.61 161.28 L2239.61 156.881 Q2241.97 158.108 2244.26 158.733 Q2246.55 159.335 2248.8 159.335 Q2251.81 159.335 2253.43 158.317 Q2255.05 157.275 2255.05 155.4 Q2255.05 153.664 2253.87 152.738 Q2252.71 151.812 2248.75 150.956 L2247.27 150.608 Q2243.31 149.775 2241.55 148.062 Q2239.79 146.326 2239.79 143.317 Q2239.79 139.659 2242.39 137.669 Q2244.98 135.678 2249.75 135.678 Q2252.11 135.678 2254.19 136.025 Q2256.27 136.372 2258.03 137.067 Z" fill="#000000" fill-rule="nonzero" fill-opacity="1" /></svg>
